<svg width="23" height="23" viewBox="0 0 23 23" fill="none" xmlns="http://www.w3.org/2000/svg">
<path d="M19 8.5C19.2761 8.5 19.5 8.27614 19.5 8C19.5 7.72386 19.2761 7.5 19 7.5L19 8.5ZM4.64645 7.64645C4.45118 7.84171 4.45118 8.15829 4.64645 8.35355L7.82843 11.5355C8.02369 11.7308 8.34027 11.7308 8.53553 11.5355C8.7308 11.3403 8.7308 11.0237 8.53553 10.8284L5.70711 8L8.53553 5.17157C8.7308 4.97631 8.7308 4.65973 8.53553 4.46447C8.34027 4.2692 8.02369 4.2692 7.82843 4.46447L4.64645 7.64645ZM19 7.5L5 7.5L5 8.5L19 8.5L19 7.5Z" fill="#F0940E"/>
<path d="M5 16.5C4.72386 16.5 4.5 16.2761 4.5 16C4.5 15.7239 4.72386 15.5 5 15.5L5 16.5ZM19.3536 15.6464C19.5488 15.8417 19.5488 16.1583 19.3536 16.3536L16.1716 19.5355C15.9763 19.7308 15.6597 19.7308 15.4645 19.5355C15.2692 19.3403 15.2692 19.0237 15.4645 18.8284L18.2929 16L15.4645 13.1716C15.2692 12.9763 15.2692 12.6597 15.4645 12.4645C15.6597 12.2692 15.9763 12.2692 16.1716 12.4645L19.3536 15.6464ZM5 15.5L19 15.5L19 16.5L5 16.5L5 15.5Z" fill="#F0940E"/>
</svg>
