<svg width="19" height="15" viewBox="0 0 19 15" fill="none" xmlns="http://www.w3.org/2000/svg">
<path d="M18.25 6.625V14.5H16.5V11.875H2.5V14.5H0.75V0.5H2.5V9.25H9.5V3.125H14.75C15.6783 3.125 16.5685 3.49375 17.2249 4.15013C17.8813 4.8065 18.25 5.69674 18.25 6.625ZM6 8.375C5.30381 8.375 4.63613 8.09844 4.14384 7.60616C3.65156 7.11387 3.375 6.44619 3.375 5.75C3.375 5.05381 3.65156 4.38613 4.14384 3.89384C4.63613 3.40156 5.30381 3.125 6 3.125C6.69619 3.125 7.36387 3.40156 7.85616 3.89384C8.34844 4.38613 8.625 5.05381 8.625 5.75C8.625 6.44619 8.34844 7.11387 7.85616 7.60616C7.36387 8.09844 6.69619 8.375 6 8.375Z" fill="#F0940E"/>
</svg>
