<svg width="103" height="103" viewBox="0 0 103 103" fill="none" xmlns="http://www.w3.org/2000/svg">
<path d="M51.5 0.25C23.2407 0.25 0.25 23.2407 0.25 51.5C0.25 79.7592 23.2407 102.75 51.5 102.75C79.7592 102.75 102.75 79.7592 102.75 51.5C102.75 23.2407 79.7592 0.25 51.5 0.25ZM31 36.125C42.2801 36.125 46.375 45.3193 46.375 51.5H36.125C36.0635 49.1937 35.1307 46.375 31 46.375C26.8692 46.375 25.9365 49.1937 25.875 51.5615L15.625 51.5C15.625 45.3193 19.7199 36.125 31 36.125ZM51.5 82.25C31 82.25 25.875 61.75 25.875 61.75H77.125C77.125 61.75 72 82.25 51.5 82.25ZM77.125 51.5C77.0635 49.1937 76.1308 46.375 72 46.375C67.8692 46.375 66.9365 49.1937 66.875 51.5615L56.625 51.5C56.625 45.3193 60.7199 36.125 72 36.125C83.2801 36.125 87.375 45.3193 87.375 51.5H77.125Z" fill="#F0940E"/>
</svg>
