<svg width="17" height="17" viewBox="0 0 17 17" fill="none" xmlns="http://www.w3.org/2000/svg">
<path d="M16.9655 8.4828V8.47856C16.9655 5.96837 15.8727 3.71408 14.1372 2.16385L14.1287 2.15678C14.1073 2.13368 14.0834 2.11305 14.0573 2.09528L14.0559 2.09458C12.5146 0.741244 10.5325 -0.00324861 8.48135 0.000748433C6.33804 0.000748433 4.38135 0.796714 2.8898 2.11013L2.89899 2.10235C2.88101 2.11599 2.86443 2.13138 2.8495 2.1483V2.14901C1.95282 2.94299 1.23509 3.91843 0.74384 5.01073C0.252592 6.10303 -0.000952111 7.28724 2.68668e-06 8.48492C2.68668e-06 10.9944 1.09145 13.2487 2.82547 14.7996L2.83395 14.8067C2.85641 14.8322 2.88153 14.8552 2.90888 14.8753L2.9103 14.876C4.45122 16.2273 6.43183 16.9707 8.48135 16.967C10.5404 16.9701 12.5295 16.2199 14.0736 14.8576L14.0644 14.8654C14.9766 14.0723 15.7079 13.0925 16.2086 11.9923C16.7094 10.8921 16.968 9.69723 16.9669 8.48846V8.48351L16.9655 8.4828ZM13.8113 14.0001C13.3911 13.6602 12.9392 13.3615 12.4619 13.108L12.4159 13.0854C12.8493 11.8363 13.1101 10.3964 13.1348 8.89846V8.88714H16.1469C16.0454 10.825 15.2113 12.6519 13.8135 13.998L13.8113 14.0001ZM8.88711 12.9362C9.79405 12.985 10.6416 13.1844 11.4235 13.5088L11.3726 13.4905C10.7462 14.9184 9.86474 15.8996 8.88711 16.1152V12.9362ZM8.88711 12.1276V8.88714H12.3283C12.301 10.229 12.0683 11.5588 11.6383 12.8302L11.6659 12.7376C10.7883 12.3769 9.85483 12.1707 8.9069 12.1283L8.88781 12.1276H8.88711ZM8.88711 8.07845V4.83804C9.86062 4.79361 10.819 4.5805 11.7196 4.2082L11.6638 4.2287C12.0561 5.37316 12.2972 6.69223 12.3283 8.06361V8.07845H8.88711ZM8.88711 4.02935V0.851852C9.86474 1.06746 10.7462 2.04439 11.3726 3.47656C10.6416 3.78052 9.79405 3.97916 8.90761 4.02864L8.88711 4.02935ZM10.9046 1.20177C11.7376 1.4796 12.5166 1.89853 13.2077 2.44025L13.1914 2.42752C12.8782 2.67352 12.5269 2.90539 12.1565 3.10685L12.1169 3.12664C11.8176 2.42026 11.4061 1.76691 10.8982 1.19187L10.9046 1.19964V1.20177ZM8.077 0.853972V4.02935C7.20504 3.98487 6.34716 3.7912 5.54066 3.45677L5.59155 3.47514C6.22069 2.04721 7.10078 1.06675 8.07842 0.851145L8.077 0.853972ZM4.8479 3.12452C4.46471 2.91836 4.0996 2.68024 3.75645 2.41268L3.77342 2.4254C4.44435 1.89958 5.19903 1.49046 6.0058 1.2152L6.05952 1.19894C5.56499 1.7584 5.16203 2.39254 4.86557 3.07787L4.8479 3.12382V3.12452ZM8.07842 4.83733V8.07775H4.63724C4.66835 6.69152 4.9094 5.37246 5.3293 4.13539L5.30173 4.22799C6.17903 4.58813 7.11194 4.79404 8.05933 4.83663L8.07842 4.83733ZM8.07842 8.88644V12.1269C7.1049 12.1713 6.14649 12.3844 5.24588 12.7567L5.30173 12.7362C4.9094 11.5924 4.66835 10.2727 4.63724 8.90128V8.88644H8.07842ZM8.07842 12.9355V16.113C7.10078 15.8974 6.21928 14.9205 5.59297 13.4883C6.3239 13.1844 7.17147 12.9864 8.05792 12.937L8.07842 12.9362V12.9355ZM6.06376 15.7631C5.231 15.4861 4.45199 15.0681 3.76069 14.5275L3.77766 14.5402C4.09081 14.2942 4.44214 14.0623 4.81255 13.8609L4.85214 13.8411C5.14895 14.5477 5.56049 15.2005 6.07012 15.773L6.06376 15.766V15.7631ZM12.1176 13.8404C12.5276 14.063 12.879 14.2942 13.2091 14.5522L13.1921 14.5395C12.5212 15.0653 11.7665 15.4744 10.9597 15.7497L10.906 15.766C11.4005 15.2068 11.8035 14.5728 12.1 13.8877L12.1176 13.8418V13.8404ZM16.1469 8.07845H13.1348C13.1132 6.61585 12.8608 5.16584 12.387 3.78194L12.4159 3.87949C12.9153 3.61657 13.388 3.30597 13.8276 2.95204L13.8106 2.96477C15.2055 4.30577 16.0399 6.12589 16.1455 8.05795L16.1462 8.07775L16.1469 8.07845ZM3.15418 2.96547C3.56135 3.2963 4.01871 3.59956 4.50364 3.85758L4.54959 3.8802C4.11626 5.12928 3.85542 6.56923 3.83068 8.06714V8.07845H0.817882C0.919457 6.14057 1.75356 4.31367 3.15135 2.96759L3.15347 2.96547H3.15418ZM0.818589 8.88714H3.83068C3.85234 10.3497 4.10475 11.7998 4.57857 13.1837L4.54959 13.0861C4.01871 13.3682 3.56205 13.6714 3.13792 14.0136L3.15488 14.0008C1.75999 12.6598 0.925587 10.8397 0.820003 8.90764L0.819296 8.88785L0.818589 8.88714Z" fill="white" fill-opacity="0.8"/>
</svg>
