<svg width="13" height="17" viewBox="0 0 13 17" fill="none" xmlns="http://www.w3.org/2000/svg">
<path d="M6.49805 9.20898C7.67165 9.20898 8.62305 8.25759 8.62305 7.08398C8.62305 5.91038 7.67165 4.95898 6.49805 4.95898C5.32444 4.95898 4.37305 5.91038 4.37305 7.08398C4.37305 8.25759 5.32444 9.20898 6.49805 9.20898Z" fill="#F0940E"/>
<path d="M6.4987 1.41699C4.9958 1.41699 3.55447 2.01401 2.49176 3.07672C1.42905 4.13943 0.832031 5.58077 0.832031 7.08366C0.832031 8.42383 1.11678 9.30074 1.89453 10.2712L6.4987 15.5837L11.1029 10.2712C11.8806 9.30074 12.1654 8.42383 12.1654 7.08366C12.1654 5.58077 11.5683 4.13943 10.5056 3.07672C9.44293 2.01401 8.00159 1.41699 6.4987 1.41699V1.41699Z" stroke="#F0940E" stroke-width="1.41667" stroke-linecap="round" stroke-linejoin="round"/>
</svg>
