<svg width="20" height="16" viewBox="0 0 20 16" fill="none" xmlns="http://www.w3.org/2000/svg">
<path d="M16.4193 0.666504H3.58594C2.85659 0.666504 2.15712 0.956235 1.64139 1.47196C1.12567 1.98769 0.835938 2.68716 0.835938 3.4165V12.5832C0.835938 13.3125 1.12567 14.012 1.64139 14.5277C2.15712 15.0434 2.85659 15.3332 3.58594 15.3332H16.4193C17.1486 15.3332 17.8481 15.0434 18.3638 14.5277C18.8795 14.012 19.1693 13.3125 19.1693 12.5832V3.4165C19.1693 2.68716 18.8795 1.98769 18.3638 1.47196C17.8481 0.956235 17.1486 0.666504 16.4193 0.666504ZM16.4193 2.49984L10.4609 6.59734C10.3216 6.67779 10.1635 6.72015 10.0026 6.72015C9.8417 6.72015 9.68362 6.67779 9.54427 6.59734L3.58594 2.49984H16.4193Z" fill="#F0940E"/>
</svg>
