<svg width="14" height="21" viewBox="0 0 14 21" fill="none" xmlns="http://www.w3.org/2000/svg">
<path d="M1.03125 0.4375C1.22187 0.4375 1.40469 0.513225 1.53948 0.648017C1.67427 0.782809 1.75 0.965626 1.75 1.15625V5.46875C1.74977 5.91484 1.8879 6.35003 2.14535 6.71433C2.40281 7.07863 2.76692 7.35411 3.1875 7.50281V1.15625C3.1875 0.965626 3.26323 0.782809 3.39802 0.648017C3.53281 0.513225 3.71563 0.4375 3.90625 0.4375C4.09687 0.4375 4.27969 0.513225 4.41448 0.648017C4.54927 0.782809 4.625 0.965626 4.625 1.15625V7.50281C5.04558 7.35411 5.40969 7.07863 5.66715 6.71433C5.9246 6.35003 6.06273 5.91484 6.0625 5.46875V1.15625C6.0625 0.965626 6.13823 0.782809 6.27302 0.648017C6.40781 0.513225 6.59063 0.4375 6.78125 0.4375C6.97187 0.4375 7.15469 0.513225 7.28948 0.648017C7.42427 0.782809 7.5 0.965626 7.5 1.15625V5.46875C7.50017 6.29722 7.21409 7.1003 6.69019 7.74209C6.16628 8.38387 5.43673 8.82493 4.625 8.99062V19.8438C4.625 20.0344 4.54927 20.2172 4.41448 20.352C4.27969 20.4868 4.09687 20.5625 3.90625 20.5625C3.71563 20.5625 3.53281 20.4868 3.39802 20.352C3.26323 20.2172 3.1875 20.0344 3.1875 19.8438V8.99062C2.37577 8.82493 1.64622 8.38387 1.12231 7.74209C0.598407 7.1003 0.312331 6.29722 0.3125 5.46875V1.15625C0.3125 0.965626 0.388225 0.782809 0.523017 0.648017C0.657809 0.513225 0.840626 0.4375 1.03125 0.4375ZM11.0636 2.56356C11.2921 2.33356 11.5494 2.15675 11.8125 2.04031V9.0625H10.375V4.03125C10.375 3.54681 10.6251 3.00056 11.0636 2.56356ZM11.8125 10.5V19.8438C11.8125 20.0344 11.8882 20.2172 12.023 20.352C12.1578 20.4868 12.3406 20.5625 12.5312 20.5625C12.7219 20.5625 12.9047 20.4868 13.0395 20.352C13.1743 20.2172 13.25 20.0344 13.25 19.8438V1.15625C13.25 0.965626 13.1743 0.782809 13.0395 0.648017C12.9047 0.513225 12.7219 0.4375 12.5312 0.4375C11.5782 0.4375 10.6869 0.906125 10.0458 1.54581C9.40613 2.18694 8.9375 3.07819 8.9375 4.03125V9.78125C8.9375 9.97187 9.01322 10.1547 9.14802 10.2895C9.28281 10.4243 9.46563 10.5 9.65625 10.5H11.8125Z" fill="url(#paint0_linear_1347_3665)"/>
<defs>
<linearGradient id="paint0_linear_1347_3665" x1="0.3125" y1="0.4375" x2="13.8517" y2="0.850753" gradientUnits="userSpaceOnUse">
<stop stop-color="#EFA00D"/>
<stop offset="1" stop-color="#EF870D"/>
</linearGradient>
</defs>
</svg>
