<svg width="23" height="17" viewBox="0 0 23 17" fill="none" xmlns="http://www.w3.org/2000/svg">
<g clip-path="url(#clip0_366_2339)">
<path d="M21.0829 4.02777H1.91623C1.74679 4.02777 1.58428 4.09508 1.46447 4.2149C1.34466 4.33471 1.27734 4.49722 1.27734 4.66666C1.27734 4.8361 1.34466 4.99861 1.46447 5.11842C1.58428 5.23824 1.74679 5.30555 1.91623 5.30555H21.0829C21.2523 5.30555 21.4148 5.23824 21.5347 5.11842C21.6545 4.99861 21.7218 4.8361 21.7218 4.66666C21.7218 4.49722 21.6545 4.33471 21.5347 4.2149C21.4148 4.09508 21.2523 4.02777 21.0829 4.02777Z" fill="#F0940E"/>
<path d="M17.8893 7.86111H5.11155C4.9421 7.86111 4.7796 7.92843 4.65978 8.04824C4.53997 8.16806 4.47266 8.33056 4.47266 8.5C4.47266 8.66945 4.53997 8.83195 4.65978 8.95177C4.7796 9.07158 4.9421 9.13889 5.11155 9.13889H17.8893C18.0588 9.13889 18.2213 9.07158 18.3411 8.95177C18.4609 8.83195 18.5282 8.66945 18.5282 8.5C18.5282 8.33056 18.4609 8.16806 18.3411 8.04824C18.2213 7.92843 18.0588 7.86111 17.8893 7.86111Z" fill="#F0940E"/>
<path d="M14.6938 11.6945H8.3049C8.13546 11.6945 7.97296 11.7618 7.85314 11.8816C7.73333 12.0014 7.66602 12.1639 7.66602 12.3333C7.66602 12.5028 7.73333 12.6653 7.85314 12.7851C7.97296 12.9049 8.13546 12.9722 8.3049 12.9722H14.6938C14.8632 12.9722 15.0257 12.9049 15.1456 12.7851C15.2654 12.6653 15.3327 12.5028 15.3327 12.3333C15.3327 12.1639 15.2654 12.0014 15.1456 11.8816C15.0257 11.7618 14.8632 11.6945 14.6938 11.6945Z" fill="#F0940E"/>
</g>
<defs>
<clipPath id="clip0_366_2339">
<rect width="23" height="17" fill="white"/>
</clipPath>
</defs>
</svg>
