<svg width="46" height="32" viewBox="0 0 46 32" fill="none" xmlns="http://www.w3.org/2000/svg">
<g clip-path="url(#clip0_264_9152)">
<rect width="46" height="32" rx="3" fill="#F93939"/>
<path d="M41.619 0H4.38095C1.96142 0 0 1.91025 0 4.26667V27.7333C0 30.0898 1.96142 32 4.38095 32H41.619C44.0386 32 46 30.0898 46 27.7333V4.26667C46 1.91025 44.0386 0 41.619 0Z" fill="#F93939"/>
<path fill-rule="evenodd" clip-rule="evenodd" d="M10.9531 23.4667H46.0007V32H10.9531V23.4667Z" fill="#249F58"/>
<path fill-rule="evenodd" clip-rule="evenodd" d="M6.57143 0L10.9524 3.2L6.57143 6.4V0ZM6.57143 6.4L10.9524 9.6L6.57143 12.8V6.4ZM6.57143 12.8L10.9524 16L6.57143 19.2V12.8ZM6.57143 19.2L10.9524 22.4L6.57143 25.6V19.2ZM6.57143 25.6L10.9524 28.8L6.57143 32V25.6ZM4.38095 0L0 3.2L4.38095 6.4V0ZM4.38095 6.4L0 9.6L4.38095 12.8V6.4ZM4.38095 12.8L0 16L4.38095 19.2V12.8ZM4.38095 19.2L0 22.4L4.38095 25.6V19.2ZM4.38095 25.6L0 28.8L4.38095 32V25.6ZM4.38095 0H6.57143V4.26667H4.38095V0ZM4.38095 27.7333H6.57143V32H4.38095V27.7333ZM4.38095 10.6667H6.57143V14.9333H4.38095V10.6667ZM4.38095 6.4H6.57143V8.53333H4.38095V6.4ZM4.38095 23.4667H6.57143V25.6H4.38095V23.4667ZM4.38095 17.0667H6.57143V21.3333H4.38095V17.0667Z" fill="white"/>
</g>
<defs>
<clipPath id="clip0_264_9152">
<rect width="46" height="32" rx="3" fill="white"/>
</clipPath>
</defs>
</svg>
