<svg width="111" height="117" viewBox="0 0 111 117" fill="none" xmlns="http://www.w3.org/2000/svg">
<path d="M89.5788 11.6063L92.705 31.3888L110.694 40.5625L101.623 58.5L110.745 76.4375L92.6025 85.6113L89.4762 105.394L69.54 102.268L55.3438 116.413L41.0962 102.063L21.3137 105.343L18.1362 85.4063L0.25 76.2838L9.3725 58.3463L0.30125 40.5625L18.29 31.2863L21.4163 11.6575L41.25 14.9375L55.4975 0.536255L69.6937 14.7325L89.5788 11.6063ZM42.685 32.875C40.6461 32.875 38.6908 33.6849 37.2491 35.1266C35.8074 36.5683 34.9975 38.5237 34.9975 40.5625C34.9975 42.6014 35.8074 44.5567 37.2491 45.9984C38.6908 47.4401 40.6461 48.25 42.685 48.25C44.7239 48.25 46.6792 47.4401 48.1209 45.9984C49.5626 44.5567 50.3725 42.6014 50.3725 40.5625C50.3725 38.5237 49.5626 36.5683 48.1209 35.1266C46.6792 33.6849 44.7239 32.875 42.685 32.875ZM68.31 68.75C66.2711 68.75 64.3158 69.5599 62.8741 71.0016C61.4324 72.4433 60.6225 74.3987 60.6225 76.4375C60.6225 78.4764 61.4324 80.4317 62.8741 81.8734C64.3158 83.3151 66.2711 84.125 68.31 84.125C70.3489 84.125 72.3042 83.3151 73.7459 81.8734C75.1876 80.4317 75.9975 78.4764 75.9975 76.4375C75.9975 74.3987 75.1876 72.4433 73.7459 71.0016C72.3042 69.5599 70.3489 68.75 68.31 68.75ZM37.0987 84.125L81.1225 40.1013L73.8962 32.875L29.8725 76.8988L37.0987 84.125Z" fill="#F0940E"/>
</svg>
