<svg width="47" height="32" viewBox="0 0 47 32" fill="none" xmlns="http://www.w3.org/2000/svg">
<g clip-path="url(#clip0_264_9149)">
<rect width="47" height="32" rx="3" fill="white"/>
<path fill-rule="evenodd" clip-rule="evenodd" d="M0 0H20.1429V14.9333H0V0Z" fill="#1A47B8"/>
<path fill-rule="evenodd" clip-rule="evenodd" d="M20.1429 0V2.13333H47V0H20.1429ZM20.1429 4.26667V6.4H47V4.26667H20.1429ZM20.1429 8.53333V10.6667H47V8.53333H20.1429ZM20.1429 12.8V14.9333H47V12.8H20.1429ZM0 17.0667V19.2H47V17.0667H0ZM0 21.3333V23.4667H47V21.3333H0ZM0 25.6V27.7333H47V25.6H0ZM0 29.8667V32H47V29.8667H0Z" fill="#F93939"/>
<path fill-rule="evenodd" clip-rule="evenodd" d="M2.23828 2.13333V4.26666H4.47638V2.13333H2.23828ZM6.71447 2.13333V4.26666H8.95257V2.13333H6.71447ZM11.1907 2.13333V4.26666H13.4288V2.13333H11.1907ZM15.6669 2.13333V4.26666H17.9049V2.13333H15.6669ZM13.4288 4.26666V6.4H15.6669V4.26666H13.4288ZM8.95257 4.26666V6.4H11.1907V4.26666H8.95257ZM4.47638 4.26666V6.4H6.71447V4.26666H4.47638ZM2.23828 6.4V8.53333H4.47638V6.4H2.23828ZM6.71447 6.4V8.53333H8.95257V6.4H6.71447ZM11.1907 6.4V8.53333H13.4288V6.4H11.1907ZM15.6669 6.4V8.53333H17.9049V6.4H15.6669ZM2.23828 10.6667V12.8H4.47638V10.6667H2.23828ZM6.71447 10.6667V12.8H8.95257V10.6667H6.71447ZM11.1907 10.6667V12.8H13.4288V10.6667H11.1907ZM15.6669 10.6667V12.8H17.9049V10.6667H15.6669ZM13.4288 8.53333V10.6667H15.6669V8.53333H13.4288ZM8.95257 8.53333V10.6667H11.1907V8.53333H8.95257ZM4.47638 8.53333V10.6667H6.71447V8.53333H4.47638Z" fill="white"/>
</g>
<defs>
<clipPath id="clip0_264_9149">
<rect width="47" height="32" rx="3" fill="white"/>
</clipPath>
</defs>
</svg>
