<svg width="17" height="18" viewBox="0 0 17 18" fill="none" xmlns="http://www.w3.org/2000/svg">
<path d="M3.5841 11.5C4.31298 11.4978 5.01428 11.2211 5.54826 10.725L10.7649 13.7058C10.5901 14.3888 10.6672 15.1119 10.982 15.7428C11.2968 16.3736 11.8282 16.87 12.4791 17.141C13.1299 17.412 13.8566 17.4396 14.5261 17.2186C15.1956 16.9976 15.7631 16.5429 16.1247 15.9377C16.4864 15.3325 16.6179 14.6173 16.4953 13.923C16.3728 13.2288 16.0042 12.6019 15.4572 12.1571C14.9102 11.7123 14.2213 11.4795 13.5166 11.5011C12.8119 11.5228 12.1386 11.7975 11.6199 12.275L6.40326 9.29417C6.45826 9.08583 6.48826 8.87 6.49326 8.65417L11.6183 5.725C12.1117 6.17398 12.7446 6.43959 13.4107 6.47726C14.0768 6.51494 14.7356 6.3224 15.2766 5.93193C15.8175 5.54146 16.2078 4.97684 16.3818 4.33277C16.5558 3.6887 16.503 3.00438 16.2323 2.39461C15.9616 1.78484 15.4894 1.28673 14.8949 0.983831C14.3005 0.680933 13.62 0.591683 12.9675 0.731052C12.3151 0.870422 11.7304 1.22993 11.3116 1.74927C10.8928 2.26861 10.6654 2.91618 10.6674 3.58333C10.6708 3.82333 10.7033 4.0625 10.7649 4.29417L6.02826 7C5.75358 6.57505 5.37306 6.22887 4.92411 5.99548C4.47516 5.76208 3.97321 5.6495 3.46758 5.66879C2.96195 5.68808 2.47003 5.83859 2.04017 6.10551C1.6103 6.37244 1.25727 6.7466 1.01577 7.19125C0.774259 7.63589 0.652583 8.13571 0.662692 8.64161C0.672801 9.1475 0.814347 9.64207 1.07342 10.0767C1.3325 10.5113 1.7002 10.8711 2.14038 11.1207C2.58057 11.3702 3.0781 11.5009 3.5841 11.5Z" fill="white"/>
</svg>
