<svg width="86" height="72" viewBox="0 0 86 72" fill="none" xmlns="http://www.w3.org/2000/svg">
<path d="M27.1551 71.0027C59.3936 71.0027 77.0236 44.0705 77.0236 20.7159C77.0236 19.9509 77.0082 19.1894 76.9742 18.4314C80.3964 15.9366 83.3709 12.8234 85.7169 9.27939C82.5765 10.687 79.197 11.6346 75.6518 12.0618C79.2704 9.87377 82.0485 6.41252 83.3591 2.28632C79.9727 4.31071 76.2225 5.78205 72.2295 6.57642C69.0312 3.1411 64.4778 0.992432 59.4359 0.992432C49.7569 0.992432 41.9079 8.90749 41.9079 18.6639C41.9079 20.0508 42.0617 21.3999 42.3624 22.6939C27.7955 21.9547 14.8785 14.9219 6.23383 4.228C4.7286 6.83987 3.86066 9.87386 3.86066 13.1112C3.86066 19.2429 6.95494 24.6561 11.6603 27.8229C8.78473 27.7333 6.08347 26.9373 3.72248 25.6124C3.7199 25.6865 3.71989 25.7588 3.71989 25.8381C3.71989 34.3975 9.7614 41.5439 17.7812 43.1633C16.3084 43.5681 14.7589 43.7852 13.1595 43.7852C12.0319 43.7852 10.9333 43.6733 9.86545 43.4665C12.0968 50.4889 18.5672 55.5991 26.2384 55.7419C20.2396 60.4832 12.6828 63.3072 4.46982 63.3072C3.05684 63.3072 1.66096 63.2261 0.289062 63.0625C8.04598 68.0762 17.2566 71.0016 27.1561 71.0016" fill="white"/>
</svg>
