<svg width="241" height="241" viewBox="0 0 241 241" fill="none" xmlns="http://www.w3.org/2000/svg">
<path d="M120.5 0.1875C152.409 0.1875 183.011 12.8632 205.574 35.4262C228.137 57.9892 240.812 88.5911 240.812 120.5C240.812 152.409 228.137 183.011 205.574 205.574C183.011 228.137 152.409 240.812 120.5 240.812C88.5911 240.812 57.9892 228.137 35.4262 205.574C12.8632 183.011 0.1875 152.409 0.1875 120.5C0.1875 88.5911 12.8632 57.9892 35.4262 35.4262C57.9892 12.8632 88.5911 0.1875 120.5 0.1875ZM105.512 144.236L78.7859 117.492C77.8278 116.534 76.6903 115.774 75.4385 115.255C74.1866 114.737 72.8449 114.47 71.4898 114.47C70.1348 114.47 68.7931 114.737 67.5412 115.255C66.2894 115.774 65.1519 116.534 64.1937 117.492C62.2587 119.427 61.1716 122.052 61.1716 124.788C61.1716 127.525 62.2587 130.149 64.1937 132.084L98.225 166.116C99.1804 167.079 100.317 167.843 101.569 168.364C102.822 168.886 104.165 169.154 105.521 169.154C106.878 169.154 108.221 168.886 109.473 168.364C110.725 167.843 111.862 167.079 112.817 166.116L183.286 95.6297C184.257 94.6755 185.029 93.5386 185.559 92.2844C186.088 91.0302 186.364 89.6836 186.37 88.3224C186.376 86.9611 186.113 85.612 185.596 84.353C185.078 83.0939 184.316 81.9498 183.354 80.9867C182.392 80.0235 181.249 79.2603 179.99 78.7412C178.732 78.2221 177.383 77.9572 176.022 77.962C174.661 77.9667 173.314 78.2409 172.059 78.7688C170.804 79.2966 169.666 80.0677 168.711 81.0375L105.512 144.236Z" fill="url(#paint0_linear_1224_1495)"/>
<defs>
<linearGradient id="paint0_linear_1224_1495" x1="0.1875" y1="0.1875" x2="251.67" y2="12.1279" gradientUnits="userSpaceOnUse">
<stop stop-color="#EFA00D"/>
<stop offset="1" stop-color="#EF870D"/>
</linearGradient>
</defs>
</svg>
