<svg width="28" height="23" viewBox="0 0 28 23" fill="none" xmlns="http://www.w3.org/2000/svg">
<path d="M24.0788 7.60547V5.4375C24.0788 4.25646 23.6096 3.12379 22.7745 2.28867C21.9394 1.45354 20.8067 0.984375 19.6257 0.984375H8.37569C7.19465 0.984375 6.06198 1.45354 5.22686 2.28867C4.39173 3.12379 3.92257 4.25646 3.92257 5.4375V7.60547C2.88023 7.77625 1.93254 8.31196 1.24871 9.11694C0.564887 9.92193 0.189453 10.9438 0.189453 12C0.189453 13.0562 0.564887 14.0781 1.24871 14.8831C1.93254 15.688 2.88023 16.2238 3.92257 16.3945V20.4375C3.92257 20.8726 4.09542 21.2899 4.40309 21.5976C4.71077 21.9053 5.12807 22.0781 5.56319 22.0781H22.4382C22.8733 22.0781 23.2906 21.9053 23.5983 21.5976C23.906 21.2899 24.0788 20.8726 24.0788 20.4375V16.3945C25.1211 16.2238 26.0688 15.688 26.7527 14.8831C27.4365 14.0781 27.8119 13.0562 27.8119 12C27.8119 10.9438 27.4365 9.92193 26.7527 9.11694C26.0688 8.31196 25.1211 7.77625 24.0788 7.60547ZM8.37569 2.39062H19.6257C20.4328 2.39371 21.206 2.71571 21.7767 3.28644C22.3475 3.85718 22.6695 4.63037 22.6726 5.4375V7.60547C21.6282 7.77486 20.6778 8.30965 19.991 9.1145C19.3042 9.91935 18.9256 10.9419 18.9226 12V12.2344H9.07882V12C9.0758 10.9419 8.69714 9.91935 8.01034 9.1145C7.32353 8.30965 6.37322 7.77486 5.32882 7.60547V5.4375C5.3319 4.63037 5.6539 3.85718 6.22463 3.28644C6.79537 2.71571 7.56856 2.39371 8.37569 2.39062ZM23.4108 15.0469H23.3757C23.1892 15.0469 23.0104 15.121 22.8785 15.2528C22.7466 15.3847 22.6726 15.5635 22.6726 15.75V20.4375C22.6726 20.4997 22.6479 20.5593 22.6039 20.6032C22.56 20.6472 22.5003 20.6719 22.4382 20.6719H5.56319C5.50103 20.6719 5.44142 20.6472 5.39746 20.6032C5.35351 20.5593 5.32882 20.4997 5.32882 20.4375V15.75C5.32882 15.5635 5.25474 15.3847 5.12288 15.2528C4.99101 15.121 4.81217 15.0469 4.62569 15.0469H4.59053C3.98947 15.0399 3.40388 14.8554 2.90747 14.5164C2.41106 14.1774 2.02601 13.6992 1.80078 13.1418C1.57555 12.5845 1.52021 11.973 1.64171 11.3843C1.76321 10.7956 2.05614 10.256 2.48362 9.83341C2.9111 9.41081 3.45403 9.1241 4.04409 9.00935C4.63414 8.89461 5.24496 8.95697 5.79965 9.18857C6.35435 9.42018 6.82815 9.81069 7.16142 10.311C7.49468 10.8112 7.67253 11.3989 7.67257 12V16.6875C7.67257 16.874 7.74664 17.0528 7.87851 17.1847C8.01037 17.3165 8.18921 17.3906 8.37569 17.3906C8.56217 17.3906 8.74101 17.3165 8.87287 17.1847C9.00474 17.0528 9.07882 16.874 9.07882 16.6875V13.6406H18.9226V16.6875C18.9226 16.874 18.9966 17.0528 19.1285 17.1847C19.2604 17.3165 19.4392 17.3906 19.6257 17.3906C19.8122 17.3906 19.991 17.3165 20.1229 17.1847C20.2547 17.0528 20.3288 16.874 20.3288 16.6875V12C20.3289 11.3989 20.5067 10.8112 20.84 10.311C21.1732 9.81069 21.647 9.42018 22.2017 9.18857C22.7564 8.95697 23.3672 8.89461 23.9573 9.00935C24.5473 9.1241 25.0903 9.41081 25.5178 9.83341C25.9452 10.256 26.2382 10.7956 26.3597 11.3843C26.4812 11.973 26.4258 12.5845 26.2006 13.1418C25.9754 13.6992 25.5903 14.1774 25.0939 14.5164C24.5975 14.8554 24.0119 15.0399 23.4108 15.0469Z" fill="url(#paint0_linear_1347_3669)"/>
<defs>
<linearGradient id="paint0_linear_1347_3669" x1="0.189453" y1="0.984375" x2="29.012" y2="2.77643" gradientUnits="userSpaceOnUse">
<stop stop-color="#EFA00D"/>
<stop offset="1" stop-color="#EF870D"/>
</linearGradient>
</defs>
</svg>
