<svg width="15" height="11" viewBox="0 0 15 11" fill="none" xmlns="http://www.w3.org/2000/svg">
<path d="M0.910767 4.76786C0.506415 4.76786 0.178624 5.09565 0.178624 5.5C0.178624 5.90435 0.506415 6.23214 0.910767 6.23214L0.910767 4.76786ZM14.607 6.0177C14.893 5.73178 14.893 5.26822 14.607 4.9823L9.94771 0.322969C9.66179 0.0370491 9.19823 0.0370491 8.91231 0.322969C8.62639 0.608888 8.62639 1.07246 8.91231 1.35838L13.0539 5.5L8.91231 9.64163C8.62639 9.92755 8.62639 10.3911 8.91231 10.677C9.19823 10.963 9.66179 10.963 9.94771 10.677L14.607 6.0177ZM0.910767 6.23214L14.0893 6.23214L14.0893 4.76786L0.910767 4.76786L0.910767 6.23214Z" fill="white"/>
</svg>
