<svg width="21" height="21" viewBox="0 0 21 21" fill="none" xmlns="http://www.w3.org/2000/svg">
<path d="M7.00002 9.41498H6.49252C5.79996 9.38995 5.10965 9.50752 4.46442 9.7604C3.81919 10.0133 3.23281 10.396 2.74168 10.885L2.60168 11.0483V15.8783H4.98168V13.1366L5.30252 12.775L5.44835 12.6058C6.20781 11.8256 7.15331 11.2515 8.19585 10.9375C7.67388 10.5403 7.26222 10.0162 7.00002 9.41498Z" fill="#F0940E"/>
<path d="M18.2817 10.8675C17.7906 10.3786 17.2042 9.99581 16.559 9.74294C15.9138 9.49007 15.2235 9.3725 14.5309 9.39753C14.3185 9.39813 14.1063 9.40981 13.8951 9.43253C13.6279 9.99655 13.2275 10.4871 12.7284 10.8617C13.8414 11.1696 14.8496 11.7745 15.6451 12.6117L15.7909 12.775L16.1059 13.1367V15.8842H18.4042V11.0309L18.2817 10.8675Z" fill="#F0940E"/>
<path d="M6.47505 8.27751H6.65588C6.57186 7.55607 6.69845 6.82573 7.02037 6.17464C7.34228 5.52356 7.84577 4.97957 8.47005 4.60834C8.24375 4.26263 7.93155 3.98161 7.56402 3.79281C7.19649 3.60401 6.78622 3.51389 6.37339 3.53129C5.96057 3.54869 5.55934 3.673 5.20899 3.89205C4.85865 4.11111 4.5712 4.41739 4.37479 4.78092C4.17838 5.14445 4.07975 5.55275 4.08855 5.96585C4.09736 6.37894 4.2133 6.78267 4.42501 7.1375C4.63673 7.49233 4.93697 7.78609 5.29633 7.99002C5.65569 8.19395 6.06186 8.30105 6.47505 8.30084V8.27751Z" fill="#F0940E"/>
<path d="M14.2508 7.83997C14.2579 7.97405 14.2579 8.1084 14.2508 8.24247C14.3628 8.26022 14.4758 8.26997 14.5892 8.27164H14.7C15.1114 8.2497 15.5101 8.12162 15.8572 7.89987C16.2044 7.67811 16.4883 7.37024 16.6812 7.00622C16.874 6.64221 16.9694 6.23445 16.9579 5.82265C16.9464 5.41085 16.8285 5.00904 16.6156 4.65635C16.4027 4.30365 16.1021 4.01208 15.7431 3.81003C15.3841 3.60798 14.9789 3.50233 14.567 3.50336C14.155 3.5044 13.7503 3.61209 13.3924 3.81594C13.0344 4.0198 12.7353 4.31288 12.5242 4.66664C13.0521 5.01135 13.4863 5.48173 13.7876 6.03559C14.089 6.58944 14.2482 7.20944 14.2508 7.83997Z" fill="#F0940E"/>
<path d="M10.4242 10.4533C11.8642 10.4533 13.0317 9.28593 13.0317 7.84584C13.0317 6.40576 11.8642 5.23834 10.4242 5.23834C8.98407 5.23834 7.81665 6.40576 7.81665 7.84584C7.81665 9.28593 8.98407 10.4533 10.4242 10.4533Z" fill="#F0940E"/>
<path d="M10.5642 11.8417C9.8024 11.8109 9.04224 11.9346 8.32948 12.2052C7.61671 12.4759 6.96607 12.888 6.41671 13.4167L6.27087 13.58V17.2725C6.27315 17.3928 6.2991 17.5114 6.34724 17.6217C6.39538 17.7319 6.46477 17.8316 6.55144 17.915C6.63811 17.9984 6.74037 18.064 6.85238 18.1078C6.96438 18.1517 7.08393 18.1731 7.20421 18.1708H13.9067C14.027 18.1731 14.1465 18.1517 14.2585 18.1078C14.3705 18.064 14.4728 17.9984 14.5595 17.915C14.6461 17.8316 14.7155 17.7319 14.7637 17.6217C14.8118 17.5114 14.8378 17.3928 14.84 17.2725V13.5917L14.7 13.4167C14.1542 12.8864 13.5059 12.4731 12.7947 12.2023C12.0835 11.9315 11.3245 11.8087 10.5642 11.8417Z" fill="#F0940E"/>
</svg>
