<svg width="23" height="23" viewBox="0 0 23 23" fill="none" xmlns="http://www.w3.org/2000/svg">
<path d="M21.0829 7.02777H1.91623C1.74679 7.02777 1.58428 7.09508 1.46447 7.2149C1.34466 7.33471 1.27734 7.49722 1.27734 7.66666C1.27734 7.8361 1.34466 7.99861 1.46447 8.11842C1.58428 8.23824 1.74679 8.30555 1.91623 8.30555H21.0829C21.2523 8.30555 21.4148 8.23824 21.5347 8.11842C21.6545 7.99861 21.7218 7.8361 21.7218 7.66666C21.7218 7.49722 21.6545 7.33471 21.5347 7.2149C21.4148 7.09508 21.2523 7.02777 21.0829 7.02777Z" fill="white"/>
<path d="M17.8893 10.8611H5.11155C4.9421 10.8611 4.7796 10.9284 4.65978 11.0482C4.53997 11.1681 4.47266 11.3306 4.47266 11.5C4.47266 11.6694 4.53997 11.832 4.65978 11.9518C4.7796 12.0716 4.9421 12.1389 5.11155 12.1389H17.8893C18.0588 12.1389 18.2213 12.0716 18.3411 11.9518C18.4609 11.832 18.5282 11.6694 18.5282 11.5C18.5282 11.3306 18.4609 11.1681 18.3411 11.0482C18.2213 10.9284 18.0588 10.8611 17.8893 10.8611Z" fill="white"/>
<path d="M14.6938 14.6945H8.3049C8.13546 14.6945 7.97296 14.7618 7.85314 14.8816C7.73333 15.0014 7.66602 15.1639 7.66602 15.3333C7.66602 15.5028 7.73333 15.6653 7.85314 15.7851C7.97296 15.9049 8.13546 15.9722 8.3049 15.9722H14.6938C14.8632 15.9722 15.0257 15.9049 15.1456 15.7851C15.2654 15.6653 15.3327 15.5028 15.3327 15.3333C15.3327 15.1639 15.2654 15.0014 15.1456 14.8816C15.0257 14.7618 14.8632 14.6945 14.6938 14.6945Z" fill="white"/>
</svg>
