<svg width="9" height="9" viewBox="0 0 9 9" fill="none" xmlns="http://www.w3.org/2000/svg">
<path d="M5.16459 4.43892L8.73284 0.870669C8.81303 0.777033 8.85493 0.656585 8.85017 0.533397C8.84541 0.410209 8.79434 0.293353 8.70717 0.20618C8.62 0.119008 8.50314 0.06794 8.37995 0.0631818C8.25677 0.0584235 8.13632 0.100326 8.04268 0.180514L4.47443 3.74876L0.906181 0.175619C0.812545 0.0954307 0.692097 0.0535292 0.568909 0.0582874C0.44572 0.0630456 0.328864 0.114113 0.241692 0.201285C0.15452 0.288458 0.103452 0.405314 0.0986937 0.528502C0.0939354 0.65169 0.135837 0.772138 0.216026 0.865775L3.78428 4.43892L0.211131 8.00717C0.159892 8.05105 0.118277 8.10505 0.0888975 8.16577C0.0595177 8.2265 0.0430075 8.29264 0.0404038 8.36005C0.0378001 8.42746 0.0491587 8.49468 0.0737667 8.5575C0.0983747 8.62031 0.135701 8.67735 0.183402 8.72505C0.231104 8.77276 0.28815 8.81008 0.350962 8.83469C0.413773 8.8593 0.480994 8.87066 0.548403 8.86805C0.615813 8.86545 0.681957 8.84894 0.742683 8.81956C0.803409 8.79018 0.857407 8.74857 0.901286 8.69733L4.47443 5.12908L8.04268 8.69733C8.13632 8.77752 8.25677 8.81942 8.37995 8.81466C8.50314 8.8099 8.62 8.75883 8.70717 8.67166C8.79434 8.58449 8.84541 8.46763 8.85017 8.34444C8.85493 8.22125 8.81303 8.10081 8.73284 8.00717L5.16459 4.43892Z" fill="black"/>
</svg>
