<svg width="26" height="20" viewBox="0 0 26 20" fill="none" xmlns="http://www.w3.org/2000/svg">
<path d="M8.02871 15.8765L2.65771 10.5534C2.51727 10.4125 2.35 10.3007 2.1656 10.2243C1.98121 10.148 1.78335 10.1086 1.58352 10.1086C1.38368 10.1086 1.18582 10.148 1.00143 10.2243C0.817034 10.3007 0.649764 10.4125 0.509316 10.5534C0.367154 10.6926 0.254284 10.8584 0.177249 11.0411C0.100214 11.2239 0.0605469 11.42 0.0605469 11.618C0.0605469 11.8161 0.100214 12.0122 0.177249 12.1949C0.254284 12.3777 0.367154 12.5435 0.509316 12.6826L6.93917 19.0551C7.53765 19.6483 8.50443 19.6483 9.10291 19.0551L25.3694 2.949C25.5115 2.8098 25.6244 2.64403 25.7014 2.46128C25.7785 2.27853 25.8181 2.08244 25.8181 1.88438C25.8181 1.68633 25.7785 1.49024 25.7014 1.30749C25.6244 1.12474 25.5115 0.958961 25.3694 0.819766C25.2289 0.678872 25.0616 0.567008 24.8772 0.490661C24.6928 0.414313 24.495 0.375 24.2952 0.375C24.0953 0.375 23.8975 0.414313 23.7131 0.490661C23.5287 0.567008 23.3614 0.678872 23.221 0.819766L8.02871 15.8765Z" fill="white"/>
</svg>
