<svg width="76" height="76" viewBox="0 0 76 76" fill="none" xmlns="http://www.w3.org/2000/svg">
<path d="M37.9991 0.90918C27.9262 0.90918 26.662 0.953226 22.7058 1.13327C18.7573 1.31409 16.0621 1.93923 13.7038 2.85645C11.2643 3.80382 9.19505 5.07109 7.13347 7.1335C5.07035 9.19513 3.80312 11.2645 2.85269 13.7032C1.93317 16.0624 1.30728 18.7584 1.12956 22.7055C0.952612 26.6619 0.90625 27.9268 0.90625 38.0001C0.90625 48.0734 0.951068 49.3337 1.13033 53.29C1.31192 57.2387 1.93704 59.9339 2.85346 62.2923C3.80157 64.7318 5.06881 66.8012 7.13115 68.8628C9.19195 70.926 11.2613 72.1964 13.6991 73.1437C16.059 74.061 18.7549 74.6861 22.7027 74.8669C26.6589 75.047 27.9223 75.091 37.9945 75.091C48.0682 75.091 49.3285 75.047 53.2848 74.8669C57.2333 74.6861 59.9316 74.061 62.2914 73.1437C64.7301 72.1964 66.7963 70.926 68.8571 68.8628C70.9202 66.8012 72.1874 64.7318 73.1378 62.2931C74.0496 59.934 74.6755 57.2379 74.861 53.2908C75.0387 49.3345 75.0851 48.0734 75.0851 38.0001C75.0851 27.9268 75.0387 26.6626 74.861 22.7063C74.6755 18.7576 74.0496 16.0624 73.1378 13.704C72.1874 11.2645 70.9202 9.19513 68.8571 7.1335C66.794 5.07032 64.7308 3.80304 62.2891 2.85645C59.9246 1.93923 57.2279 1.31409 53.2794 1.13327C49.3231 0.953226 48.0636 0.90918 37.9875 0.90918H37.9991ZM34.6719 7.59327C35.6594 7.59172 36.7613 7.59327 37.9991 7.59327C47.9021 7.59327 49.0758 7.62882 52.9865 7.80654C56.6028 7.97191 58.5654 8.57618 59.8728 9.08386C61.6037 9.75613 62.8377 10.5598 64.1351 11.858C65.4332 13.1561 66.2368 14.3925 66.9106 16.1234C67.4183 17.4293 68.0233 19.392 68.1879 23.0084C68.3656 26.9184 68.4043 28.093 68.4043 37.9916C68.4043 47.8902 68.3656 49.0648 68.1879 52.9748C68.0225 56.5911 67.4183 58.5539 66.9106 59.8598C66.2384 61.5907 65.4332 62.8232 64.1351 64.1206C62.8369 65.4188 61.6045 66.2224 59.8728 66.8947C58.567 67.4047 56.6028 68.0074 52.9865 68.1728C49.0766 68.3505 47.9021 68.3891 37.9991 68.3891C28.0954 68.3891 26.9216 68.3505 23.0118 68.1728C19.3955 68.0059 17.4328 67.4016 16.1247 66.8939C14.3938 66.2216 13.1575 65.418 11.8593 64.1198C10.5612 62.8216 9.75757 61.5884 9.08378 59.8567C8.57611 58.5508 7.97108 56.588 7.8065 52.9717C7.62878 49.0617 7.59323 47.8871 7.59323 37.9823C7.59323 28.0775 7.62878 26.9091 7.8065 22.9991C7.97186 19.3828 8.57611 17.42 9.08378 16.1126C9.75603 14.3817 10.5612 13.1453 11.8593 11.8471C13.1575 10.549 14.3938 9.74532 16.1247 9.0715C17.4321 8.5615 19.3955 7.95877 23.0118 7.79263C26.4333 7.63809 27.7593 7.59173 34.6719 7.584V7.59327ZM57.7974 13.7519C55.3402 13.7519 53.3466 15.7432 53.3466 18.2013C53.3466 20.6585 55.3402 22.6522 57.7974 22.6522C60.2546 22.6522 62.2481 20.6585 62.2481 18.2013C62.2481 15.744 60.2546 13.7504 57.7974 13.7504V13.7519ZM37.9991 18.9524C27.4803 18.9524 18.952 27.481 18.952 38.0001C18.952 48.5192 27.4803 57.0439 37.9991 57.0439C48.518 57.0439 57.0432 48.5192 57.0432 38.0001C57.0432 27.481 48.5172 18.9524 37.9984 18.9524H37.9991ZM37.9991 25.6365C44.8267 25.6365 50.3624 31.1715 50.3624 38.0001C50.3624 44.8279 44.8267 50.3637 37.9991 50.3637C31.1707 50.3637 25.6359 44.8279 25.6359 38.0001C25.6359 31.1715 31.1707 25.6365 37.9991 25.6365Z" fill="white"/>
</svg>
