<svg width="45" height="32" viewBox="0 0 45 32" fill="none" xmlns="http://www.w3.org/2000/svg">
<g clip-path="url(#clip0_264_9150)">
<rect width="45" height="32" rx="3" fill="white"/>
<path fill-rule="evenodd" clip-rule="evenodd" d="M0 21.3333H45V32H0V21.3333Z" fill="#249F58"/>
<path fill-rule="evenodd" clip-rule="evenodd" d="M22.4997 21.3333C25.4569 21.3333 27.8569 18.944 27.8569 16C27.8569 13.056 25.4569 10.6667 22.4997 10.6667C19.5426 10.6667 17.1426 13.056 17.1426 16C17.1426 18.944 19.5426 21.3333 22.4997 21.3333ZM22.4997 19.2C24.274 19.2 25.714 17.7664 25.714 16C25.714 14.2336 24.274 12.8 22.4997 12.8C20.7254 12.8 19.2854 14.2336 19.2854 16C19.2854 17.7664 20.7254 19.2 22.4997 19.2Z" fill="#1A47B8"/>
<path d="M22.4992 17.0667C23.0909 17.0667 23.5706 16.5891 23.5706 16C23.5706 15.4109 23.0909 14.9333 22.4992 14.9333C21.9074 14.9333 21.4277 15.4109 21.4277 16C21.4277 16.5891 21.9074 17.0667 22.4992 17.0667Z" fill="#1A47B8"/>
<path fill-rule="evenodd" clip-rule="evenodd" d="M0 0H45V10.6667H0V0Z" fill="#FF6C2D"/>
</g>
<defs>
<clipPath id="clip0_264_9150">
<rect width="45" height="32" rx="3" fill="white"/>
</clipPath>
</defs>
</svg>
