<svg width="18" height="16" viewBox="0 0 18 16" fill="none" xmlns="http://www.w3.org/2000/svg">
<path d="M5.875 0.5C5.37772 0.5 4.90081 0.697544 4.54917 1.04917C4.19754 1.40081 4 1.87772 4 2.375V3H2.75C2.08696 3 1.45107 3.26339 0.982233 3.73223C0.513392 4.20107 0.25 4.83696 0.25 5.5V11.125C0.25 11.6223 0.447544 12.0992 0.799175 12.4508C1.15081 12.8025 1.62772 13 2.125 13H4V13.625C4 14.1223 4.19754 14.5992 4.54917 14.9508C4.90081 15.3025 5.37772 15.5 5.875 15.5H12.25C12.7473 15.5 13.2242 15.3025 13.5758 14.9508C13.9275 14.5992 14.125 14.1223 14.125 13.625V13H15.875C16.3723 13 16.8492 12.8025 17.2008 12.4508C17.5525 12.0992 17.75 11.6223 17.75 11.125V5.5C17.75 4.83696 17.4866 4.20107 17.0178 3.73223C16.5489 3.26339 15.913 3 15.25 3H14V2.375C14 1.87772 13.8025 1.40081 13.4508 1.04917C13.0992 0.697544 12.6223 0.5 12.125 0.5H5.875ZM12.75 3H5.25V2.375C5.25 2.20924 5.31585 2.05027 5.43306 1.93306C5.55027 1.81585 5.70924 1.75 5.875 1.75H12.125C12.2908 1.75 12.4497 1.81585 12.5669 1.93306C12.6842 2.05027 12.75 2.20924 12.75 2.375V3ZM5.875 10.5H12.25C12.4158 10.5 12.5747 10.5658 12.6919 10.6831C12.8092 10.8003 12.875 10.9592 12.875 11.125V13.625C12.875 13.7908 12.8092 13.9497 12.6919 14.0669C12.5747 14.1842 12.4158 14.25 12.25 14.25H5.875C5.70924 14.25 5.55027 14.1842 5.43306 14.0669C5.31585 13.9497 5.25 13.7908 5.25 13.625V11.125C5.25 10.9592 5.31585 10.8003 5.43306 10.6831C5.55027 10.5658 5.70924 10.5 5.875 10.5Z" fill="white"/>
</svg>
