<svg width="73" height="103" viewBox="0 0 73 103" fill="none" xmlns="http://www.w3.org/2000/svg">
<path d="M62.125 0.25H41.625V21.0524C48.9605 21.8587 55.993 24.4238 62.125 28.5298V0.25ZM31.375 0.25H10.875V28.5298C17.007 24.4238 24.0395 21.8587 31.375 21.0524V0.25ZM36.5 102.75C46.0146 102.75 55.1396 98.9703 61.8675 92.2425C68.5953 85.5146 72.375 76.3896 72.375 66.875C72.375 57.3604 68.5953 48.2354 61.8675 41.5075C55.1396 34.7797 46.0146 31 36.5 31C26.9854 31 17.8604 34.7797 11.1325 41.5075C4.40468 48.2354 0.625 57.3604 0.625 66.875C0.625 76.3896 4.40468 85.5146 11.1325 92.2425C17.8604 98.9703 26.9854 102.75 36.5 102.75ZM30.2219 59.0901L36.5 46.375L42.7781 59.0901L56.8104 61.1248L46.6578 71.0263L49.0562 85.0021L36.5 78.4062L23.9489 85.0021L26.3474 71.0263L16.1948 61.1248L30.2219 59.0901Z" fill="#F0940E"/>
</svg>
