<svg width="21" height="17" viewBox="0 0 21 17" fill="none" xmlns="http://www.w3.org/2000/svg">
<path d="M17.2096 0.833328H3.79297C3.03047 0.833328 2.2992 1.13623 1.76004 1.6754C1.22087 2.21456 0.917969 2.94583 0.917969 3.70833V13.2917C0.917969 14.0542 1.22087 14.7854 1.76004 15.3246C2.2992 15.8638 3.03047 16.1667 3.79297 16.1667H17.2096C17.9721 16.1667 18.7034 15.8638 19.2426 15.3246C19.7817 14.7854 20.0846 14.0542 20.0846 13.2917V3.70833C20.0846 2.94583 19.7817 2.21456 19.2426 1.6754C18.7034 1.13623 17.9721 0.833328 17.2096 0.833328ZM17.2096 2.74999L10.9805 7.03374C10.8348 7.11786 10.6695 7.16214 10.5013 7.16214C10.3331 7.16214 10.1678 7.11786 10.0221 7.03374L3.79297 2.74999H17.2096Z" fill="white"/>
</svg>
