<svg width="15" height="16" viewBox="0 0 15 16" fill="none" xmlns="http://www.w3.org/2000/svg">
<path d="M14 14.6244L10.687 11.3114L14 14.6244ZM10.687 11.3114C11.2187 10.7796 11.6405 10.1483 11.9283 9.45353C12.2161 8.75876 12.3642 8.0141 12.3642 7.26208C12.3642 6.51006 12.2161 5.7654 11.9283 5.07063C11.6405 4.37585 11.2187 3.74456 10.687 3.2128C10.1552 2.68104 9.52391 2.25923 8.82913 1.97144C8.13435 1.68366 7.3897 1.53554 6.63768 1.53554C5.88566 1.53554 5.141 1.68366 4.44622 1.97144C3.75145 2.25923 3.12016 2.68105 2.5884 3.2128C1.51446 4.28674 0.911133 5.74331 0.911133 7.26208C0.911133 8.78086 1.51446 10.2374 2.5884 11.3114C3.66233 12.3853 5.1189 12.9886 6.63768 12.9886C8.15645 12.9886 9.61302 12.3853 10.687 11.3114V11.3114Z" stroke="black" stroke-opacity="0.5" stroke-width="1.35399" stroke-linecap="round" stroke-linejoin="round"/>
</svg>
