<svg width="39" height="39" viewBox="0 0 39 39" fill="none" xmlns="http://www.w3.org/2000/svg">
<path d="M25.35 19.4998C25.35 21.0513 24.7337 22.5393 23.6366 23.6364C22.5395 24.7334 21.0515 25.3498 19.5 25.3498C17.9485 25.3498 16.4605 24.7334 15.3635 23.6364C14.2664 22.5393 13.65 21.0513 13.65 19.4998C13.65 19.1663 13.6851 18.8407 13.7456 18.5248H11.7V26.3189C11.7 26.861 12.1388 27.2998 12.6809 27.2998H26.3211C26.5809 27.2993 26.8299 27.1957 27.0134 27.0118C27.197 26.8279 27.3 26.5787 27.3 26.3189V18.5248H25.2545C25.3149 18.8407 25.35 19.1663 25.35 19.4998ZM19.5 23.3998C20.0123 23.3997 20.5196 23.2986 20.9928 23.1025C21.466 22.9063 21.896 22.6189 22.2581 22.2565C22.6203 21.8942 22.9075 21.4641 23.1035 20.9907C23.2994 20.5174 23.4002 20.0101 23.4 19.4978C23.3999 18.9855 23.2989 18.4783 23.1027 18.0051C22.9065 17.5318 22.6191 17.1019 22.2568 16.7397C21.8944 16.3776 21.4643 16.0903 20.991 15.8944C20.5177 15.6985 20.0104 15.5977 19.4981 15.5978C18.4635 15.5981 17.4713 16.0093 16.74 16.7411C16.0086 17.4728 15.5978 18.4652 15.5981 19.4998C15.5983 20.5344 16.0096 21.5265 16.7413 22.2579C17.4731 22.9893 18.4654 23.4 19.5 23.3998ZM24.18 15.4048H26.5181C26.6734 15.4048 26.8224 15.3432 26.9324 15.2336C27.0424 15.1239 27.1045 14.9751 27.105 14.8198V12.4817C27.105 12.3261 27.0432 12.1768 26.9331 12.0667C26.823 11.9566 26.6737 11.8948 26.5181 11.8948H24.18C24.0244 11.8948 23.8751 11.9566 23.765 12.0667C23.6549 12.1768 23.5931 12.3261 23.5931 12.4817V14.8198C23.595 15.1415 23.8583 15.4048 24.18 15.4048ZM19.5 0.779785C14.5352 0.779785 9.77367 2.75206 6.26299 6.26275C2.75231 9.77343 0.780029 14.5349 0.780029 19.4998C0.780029 24.4646 2.75231 29.2261 6.26299 32.7368C9.77367 36.2475 14.5352 38.2198 19.5 38.2198C21.9584 38.2198 24.3926 37.7356 26.6639 36.7948C28.9351 35.854 30.9988 34.4751 32.7371 32.7368C34.4754 30.9985 35.8543 28.9348 36.7951 26.6636C37.7358 24.3924 38.22 21.9581 38.22 19.4998C38.22 17.0414 37.7358 14.6072 36.7951 12.3359C35.8543 10.0647 34.4754 8.00106 32.7371 6.26275C30.9988 4.52443 28.9351 3.14553 26.6639 2.20476C24.3926 1.26399 21.9584 0.779785 19.5 0.779785ZM29.25 27.0833C29.25 28.2748 28.275 29.2498 27.0836 29.2498H11.9165C10.725 29.2498 9.75003 28.2748 9.75003 27.0833V11.9162C9.75003 10.7248 10.725 9.74978 11.9165 9.74978H27.0836C28.275 9.74978 29.25 10.7248 29.25 11.9162V27.0833Z" fill="#F0940E"/>
</svg>
