<svg width="45" height="32" viewBox="0 0 45 32" fill="none" xmlns="http://www.w3.org/2000/svg">
<g clip-path="url(#clip0_264_9148)">
<rect width="45" height="32" rx="3" fill="#F93939"/>
<path d="M40.7143 0H4.28571C1.91878 0 0 1.91025 0 4.26667V27.7333C0 30.0898 1.91878 32 4.28571 32H40.7143C43.0812 32 45 30.0898 45 27.7333V4.26667C45 1.91025 43.0812 0 40.7143 0Z" fill="#F93939"/>
<path fill-rule="evenodd" clip-rule="evenodd" d="M11.7813 15.424L8.63126 17.0731L9.23126 13.5808L6.68555 11.1061L10.2063 10.6005L11.7813 7.42186L13.3541 10.6005L16.8748 11.1061L14.3248 13.5808L14.9291 17.0709L11.7813 15.424ZM19.2855 6.39999H21.4284V8.53333H19.2855V6.39999ZM21.4284 10.6667H23.5713V12.8H21.4284V10.6667ZM21.4284 14.9333H23.5713V17.0667H21.4284V14.9333ZM19.2855 19.2H21.4284V21.3333H19.2855V19.2Z" fill="#FFDA2C"/>
</g>
<defs>
<clipPath id="clip0_264_9148">
<rect width="45" height="32" rx="3" fill="white"/>
</clipPath>
</defs>
</svg>
