<svg width="101" height="101" viewBox="0 0 101 101" fill="none" xmlns="http://www.w3.org/2000/svg">
<path d="M77.2502 4.53129C77.2516 3.77007 77.0269 3.02559 76.6046 2.39222C76.1824 1.75885 75.5816 1.26513 74.8783 0.973638C74.1751 0.682147 73.4012 0.606017 72.6547 0.7549C71.9082 0.903782 71.2227 1.27097 70.6851 1.80992L55.3101 17.1849C54.9534 17.5425 54.6707 17.967 54.4781 18.4339C54.2855 18.9009 54.1868 19.4012 54.1877 19.9063V41.3775L48.4913 47.0662C47.3517 46.7638 46.158 46.7271 45.002 46.9587C43.846 47.1904 42.7585 47.6844 41.8235 48.4025C40.8885 49.1207 40.1308 50.0439 39.6088 51.101C39.0868 52.1582 38.8145 53.321 38.8127 54.5C38.8132 55.5941 39.0472 56.6754 39.4991 57.6718C39.951 58.6681 40.6103 59.5565 41.4331 60.2777C42.2558 60.9988 43.223 61.536 44.27 61.8534C45.317 62.1708 46.4196 62.2611 47.5043 62.1182C48.589 61.9753 49.6306 61.6025 50.5597 61.0248C51.4888 60.4471 52.2838 59.6777 52.8917 58.7681C53.4996 57.8585 53.9064 56.8296 54.0848 55.7502C54.2632 54.6709 54.2092 53.5658 53.9263 52.509L59.6228 46.8125H81.094C81.5991 46.8134 82.0994 46.7148 82.5664 46.5222C83.0333 46.3296 83.4577 46.0469 83.8154 45.6902L99.1904 30.3152C99.7293 29.7776 100.096 29.0921 100.245 28.3456C100.394 27.599 100.318 26.8251 100.027 26.1219C99.7351 25.4187 99.2414 24.8179 98.608 24.3956C97.9747 23.9734 97.2302 23.7487 96.469 23.75H77.2502V4.53129ZM92.1947 48.1809C93.5175 57.7532 91.8006 67.4991 87.2863 76.043C82.772 84.5869 75.6884 91.4973 67.0353 95.7986C58.3822 100.1 48.5967 101.575 39.0602 100.015C29.5236 98.456 20.7177 93.9408 13.8855 87.1072C7.05322 80.2736 2.53973 71.4668 0.982112 61.93C-0.575502 52.3931 0.901436 42.608 5.20444 33.9557C9.50745 25.3034 16.4192 18.2211 24.964 13.7085C33.5088 9.19587 43.2551 7.48085 52.827 8.80554L49.8827 11.7499C48.8107 12.8205 47.9602 14.092 47.3798 15.4915C46.7994 16.891 46.5005 18.3912 46.5002 19.9063C39.6582 19.9063 32.9699 21.9352 27.281 25.7364C21.5921 29.5376 17.1581 34.9404 14.5398 41.2616C11.9215 47.5828 11.2364 54.5384 12.5712 61.249C13.906 67.9595 17.2007 74.1235 22.0387 78.9615C26.8768 83.7995 33.0408 87.0943 39.7513 88.4291C46.4619 89.7639 53.4175 89.0788 59.7387 86.4605C66.0599 83.8422 71.4627 79.4082 75.2639 73.7193C79.0651 68.0304 81.094 61.342 81.094 54.5C84.1512 54.4974 87.0823 53.2807 89.2427 51.1175L92.1947 48.1809ZM46.5002 27.5938C41.1787 27.5938 35.9766 29.1718 31.5519 32.1283C27.1272 35.0848 23.6786 39.287 21.6421 44.2035C19.6056 49.1199 19.0728 54.5299 20.111 59.7492C21.1492 64.9685 23.7117 69.7627 27.4746 73.5256C31.2375 77.2885 36.0318 79.8511 41.2511 80.8893C46.4704 81.9275 51.8803 81.3947 56.7968 79.3582C61.7133 77.3217 65.9155 73.8731 68.872 69.4484C71.8285 65.0237 73.4065 59.8216 73.4065 54.5H62.8054L61.8445 55.461C61.6597 58.4143 60.6265 61.2516 58.8691 63.6323C57.1116 66.0129 54.7045 67.8359 51.9366 68.8823C49.1687 69.9287 46.1576 70.1542 43.2648 69.5317C40.3719 68.9091 37.7201 67.465 35.6277 65.3726C33.5353 63.2801 32.0912 60.6284 31.4686 57.7355C30.8461 54.8426 31.0715 51.8316 32.118 49.0637C33.1644 46.2958 34.9873 43.8886 37.368 42.1312C39.7487 40.3737 42.586 39.3406 45.5393 39.1558L46.5002 38.1949V27.5938Z" fill="#F0940E"/>
</svg>
