<svg width="92" height="64" viewBox="0 0 92 64" fill="none" xmlns="http://www.w3.org/2000/svg">
<path d="M89.5825 10.095C89.0647 8.17115 88.0506 6.41704 86.6418 5.00824C85.233 3.59944 83.4789 2.58537 81.555 2.06752C74.47 0.150025 46 0.150024 46 0.150024C46 0.150024 17.53 0.150025 10.445 2.06752C8.52113 2.58537 6.76702 3.59944 5.35822 5.00824C3.94942 6.41704 2.93535 8.17115 2.4175 10.095C1.09458 17.3206 0.452597 24.6545 0.500004 32C0.452597 39.3456 1.09458 46.6794 2.4175 53.905C2.93535 55.8289 3.94942 57.583 5.35822 58.9918C6.76702 60.4006 8.52113 61.4147 10.445 61.9325C17.53 63.85 46 63.85 46 63.85C46 63.85 74.47 63.85 81.555 61.9325C83.4789 61.4147 85.233 60.4006 86.6418 58.9918C88.0506 57.583 89.0647 55.8289 89.5825 53.905C90.9054 46.6794 91.5474 39.3456 91.5 32C91.5474 24.6545 90.9054 17.3206 89.5825 10.095ZM36.9 45.65V18.35L60.5275 32L36.9 45.65Z" fill="white" fill-opacity="0.64"/>
</svg>
