<svg width="44" height="44" viewBox="0 0 44 44" fill="none" xmlns="http://www.w3.org/2000/svg">
<rect width="44" height="44" rx="4.29268" fill="#EFA00D"/>
<path d="M16.1881 14.6562L16.6063 10.4745C16.6238 10.2995 16.7259 10.1442 16.8796 10.0588L21.342 7.57973C21.4217 7.53545 21.5114 7.51221 21.6026 7.51221H27.2789C27.6071 7.51221 27.8584 7.8043 27.8095 8.12888L23.6788 35.4947C23.6391 35.7572 23.4136 35.9512 23.1482 35.9512H16.7336C16.4012 35.9512 16.1487 35.652 16.2047 35.3243L19.6878 14.9231C19.7594 14.504 19.3383 14.1721 18.9475 14.3396L16.9334 15.2028C16.5579 15.3637 16.1475 15.0627 16.1881 14.6562Z" fill="white"/>
</svg>
