<svg width="0" height="0" class="hidden">
  <symbol xmlns="http://www.w3.org/2000/svg" viewBox="0 0 15 11" id="icon-arrow-right">
    <path d="M0.910767 4.76786C0.506415 4.76786 0.178624 5.09565 0.178624 5.5C0.178624 5.90435 0.506415 6.23214 0.910767 6.23214L0.910767 4.76786ZM14.607 6.0177C14.893 5.73178 14.893 5.26822 14.607 4.9823L9.94771 0.322969C9.66179 0.0370491 9.19823 0.0370491 8.91231 0.322969C8.62639 0.608888 8.62639 1.07246 8.91231 1.35838L13.0539 5.5L8.91231 9.64163C8.62639 9.92755 8.62639 10.3911 8.91231 10.677C9.19823 10.963 9.66179 10.963 9.94771 10.677L14.607 6.0177ZM0.910767 6.23214L14.0893 6.23214L14.0893 4.76786L0.910767 4.76786L0.910767 6.23214Z"></path>
  </symbol>
	<symbol xmlns="http://www.w3.org/2000/svg" viewBox="0 0 37 37" id="icon-facebook">
    <path fill-rule="evenodd" clip-rule="evenodd" d="M0 18.6033C0 27.8009 6.68004 35.4491 15.4167 37V23.6384H10.7917V18.5H15.4167V14.3884C15.4167 9.76338 18.3967 7.19496 22.6116 7.19496C23.9467 7.19496 25.3866 7.4 26.7217 7.60504V12.3333H24.3583C22.0967 12.3333 21.5833 13.4634 21.5833 14.9033V18.5H26.5167L25.695 23.6384H21.5833V37C30.32 35.4491 37 27.8024 37 18.6033C37 8.37125 28.675 0 18.5 0C8.325 0 0 8.37125 0 18.6033Z"></path>
  </symbol>
	<symbol xmlns="http://www.w3.org/2000/svg" viewBox="0 0 39 39" id="icon-insta">
    <path d="M25.35 19.4998C25.35 21.0513 24.7337 22.5393 23.6366 23.6364C22.5395 24.7334 21.0515 25.3498 19.5 25.3498C17.9485 25.3498 16.4605 24.7334 15.3635 23.6364C14.2664 22.5393 13.65 21.0513 13.65 19.4998C13.65 19.1663 13.6851 18.8407 13.7456 18.5248H11.7V26.3189C11.7 26.861 12.1388 27.2998 12.6809 27.2998H26.3211C26.5809 27.2993 26.8299 27.1957 27.0134 27.0118C27.197 26.8279 27.3 26.5787 27.3 26.3189V18.5248H25.2545C25.3149 18.8407 25.35 19.1663 25.35 19.4998ZM19.5 23.3998C20.0123 23.3997 20.5196 23.2986 20.9928 23.1025C21.466 22.9063 21.896 22.6189 22.2581 22.2565C22.6203 21.8942 22.9075 21.4641 23.1035 20.9907C23.2994 20.5174 23.4002 20.0101 23.4 19.4978C23.3999 18.9855 23.2989 18.4783 23.1027 18.0051C22.9065 17.5318 22.6191 17.1019 22.2568 16.7397C21.8944 16.3776 21.4643 16.0903 20.991 15.8944C20.5177 15.6985 20.0104 15.5977 19.4981 15.5978C18.4635 15.5981 17.4713 16.0093 16.74 16.7411C16.0086 17.4728 15.5978 18.4652 15.5981 19.4998C15.5983 20.5344 16.0096 21.5265 16.7413 22.2579C17.4731 22.9893 18.4654 23.4 19.5 23.3998ZM24.18 15.4048H26.5181C26.6734 15.4048 26.8224 15.3432 26.9324 15.2336C27.0424 15.1239 27.1045 14.9751 27.105 14.8198V12.4817C27.105 12.3261 27.0432 12.1768 26.9331 12.0667C26.823 11.9566 26.6737 11.8948 26.5181 11.8948H24.18C24.0244 11.8948 23.8751 11.9566 23.765 12.0667C23.6549 12.1768 23.5931 12.3261 23.5931 12.4817V14.8198C23.595 15.1415 23.8583 15.4048 24.18 15.4048ZM19.5 0.779785C14.5352 0.779785 9.77367 2.75206 6.26299 6.26275C2.75231 9.77343 0.780029 14.5349 0.780029 19.4998C0.780029 24.4646 2.75231 29.2261 6.26299 32.7368C9.77367 36.2475 14.5352 38.2198 19.5 38.2198C21.9584 38.2198 24.3926 37.7356 26.6639 36.7948C28.9351 35.854 30.9988 34.4751 32.7371 32.7368C34.4754 30.9985 35.8543 28.9348 36.7951 26.6636C37.7358 24.3924 38.22 21.9581 38.22 19.4998C38.22 17.0414 37.7358 14.6072 36.7951 12.3359C35.8543 10.0647 34.4754 8.00106 32.7371 6.26275C30.9988 4.52443 28.9351 3.14553 26.6639 2.20476C24.3926 1.26399 21.9584 0.779785 19.5 0.779785ZM29.25 27.0833C29.25 28.2748 28.275 29.2498 27.0836 29.2498H11.9165C10.725 29.2498 9.75003 28.2748 9.75003 27.0833V11.9162C9.75003 10.7248 10.725 9.74978 11.9165 9.74978H27.0836C28.275 9.74978 29.25 10.7248 29.25 11.9162V27.0833Z"></path>
  </symbol>
	<symbol xmlns="http://www.w3.org/2000/svg" viewBox="0 0 37 37" id="icon-twitter">
    <path d="M18.5 0C8.28371 0 0 8.28371 0 18.5C0 28.7163 8.28371 37 18.5 37C28.7163 37 37 28.7163 37 18.5C37 8.28371 28.7163 0 18.5 0ZM27.3907 13.9452C27.4031 14.1393 27.4031 14.3416 27.4031 14.5398C27.4031 20.6019 22.7864 27.5848 14.3499 27.5848C11.7483 27.5848 9.33672 26.8291 7.30502 25.5283C7.67667 25.5696 8.03181 25.5862 8.41172 25.5862C10.559 25.5862 12.5329 24.8594 14.1062 23.6288C12.0911 23.5875 10.398 22.2661 9.81987 20.4491C10.526 20.5523 11.1619 20.5523 11.8887 20.3665C10.8511 20.1557 9.91846 19.5922 9.24924 18.7716C8.58002 17.9511 8.21551 16.9242 8.21763 15.8654V15.8076C8.82466 16.1503 9.53906 16.3609 10.2865 16.3898C9.65817 15.9711 9.14287 15.4038 8.78631 14.7382C8.42974 14.0726 8.24292 13.3293 8.24241 12.5742C8.24241 11.7194 8.4654 10.939 8.86596 10.2617C10.0177 11.6795 11.4548 12.8391 13.0841 13.6651C14.7133 14.4911 16.4981 14.965 18.3224 15.056C17.6741 11.9383 20.0031 9.41518 22.8029 9.41518C24.1243 9.41518 25.3136 9.96853 26.1519 10.8605C27.1884 10.6664 28.1795 10.2782 29.0632 9.75792C28.7204 10.8192 28.0019 11.7153 27.048 12.281C27.973 12.1819 28.865 11.9259 29.6908 11.5666C29.0673 12.4834 28.2868 13.2969 27.3907 13.9452Z"></path>
  </symbol>
	<symbol xmlns="http://www.w3.org/2000/svg" viewBox="0 0 12 12" id="icon-search">
    <path d="M5.25 10.25C6.35936 10.2498 7.43675 9.87839 8.31063 9.195L11.0581 11.9425L11.9419 11.0588L9.19438 8.31125C9.87813 7.43729 10.2497 6.35965 10.25 5.25C10.25 2.49313 8.00688 0.25 5.25 0.25C2.49313 0.25 0.25 2.49313 0.25 5.25C0.25 8.00688 2.49313 10.25 5.25 10.25ZM5.25 1.5C7.31812 1.5 9 3.18187 9 5.25C9 7.31812 7.31812 9 5.25 9C3.18187 9 1.5 7.31812 1.5 5.25C1.5 3.18187 3.18187 1.5 5.25 1.5Z"></path>
  </symbol>
	<symbol xmlns="http://www.w3.org/2000/svg" viewBox="0 0 12 29" id="icon-logo-number">
    <path d="M0.188134 7.65621L0.606308 3.47447C0.623806 3.29949 0.725924 3.1442 0.879641 3.0588L5.34196 0.579732C5.42168 0.535447 5.51136 0.512207 5.60255 0.512207H11.2789C11.6071 0.512207 11.8584 0.804304 11.8095 1.12888L7.67876 28.4947C7.63914 28.7572 7.4136 28.9512 7.14818 28.9512H0.733618C0.401182 28.9512 0.148738 28.652 0.204686 28.3243L3.68782 7.92312C3.75938 7.50402 3.33831 7.17214 2.94752 7.33962L0.933428 8.2028C0.557924 8.36373 0.147484 8.06271 0.188134 7.65621Z"></path>
  </symbol>
	<symbol fill="none" xmlns="http://www.w3.org/2000/svg" viewBox="0 0 25 43" id="icon-angle">
    <path d="M2 2L22 21.5L2 41" stroke="white" stroke-opacity="0.76" stroke-width="4" stroke-linecap="round"></path>
  </symbol>
	<symbol xmlns="http://www.w3.org/2000/svg" viewBox="0 0 23 23" id="icon-switch">
    <path d="M19 8.5C19.2761 8.5 19.5 8.27614 19.5 8C19.5 7.72386 19.2761 7.5 19 7.5L19 8.5ZM4.64645 7.64645C4.45118 7.84171 4.45118 8.15829 4.64645 8.35355L7.82843 11.5355C8.02369 11.7308 8.34027 11.7308 8.53553 11.5355C8.7308 11.3403 8.7308 11.0237 8.53553 10.8284L5.70711 8L8.53553 5.17157C8.7308 4.97631 8.7308 4.65973 8.53553 4.46447C8.34027 4.2692 8.02369 4.2692 7.82843 4.46447L4.64645 7.64645ZM19 7.5L5 7.5L5 8.5L19 8.5L19 7.5Z" fill="#F0940E"></path>
    <path d="M5 16.5C4.72386 16.5 4.5 16.2761 4.5 16C4.5 15.7239 4.72386 15.5 5 15.5L5 16.5ZM19.3536 15.6464C19.5488 15.8417 19.5488 16.1583 19.3536 16.3536L16.1716 19.5355C15.9763 19.7308 15.6597 19.7308 15.4645 19.5355C15.2692 19.3403 15.2692 19.0237 15.4645 18.8284L18.2929 16L15.4645 13.1716C15.2692 12.9763 15.2692 12.6597 15.4645 12.4645C15.6597 12.2692 15.9763 12.2692 16.1716 12.4645L19.3536 15.6464ZM5 15.5L19 15.5L19 16.5L5 16.5L5 15.5Z" fill="#F0940E"></path>
  </symbol>
	<symbol fill="none" xmlns="http://www.w3.org/2000/svg" viewBox="0 0 24 24" id="icon-close">
    <path d="M13.9594 11.9339L23.6794 2.21394C23.8978 1.95887 24.012 1.63077 23.999 1.2952C23.986 0.959636 23.8469 0.641318 23.6095 0.403858C23.372 0.166399 23.0537 0.0272883 22.7181 0.0143267C22.3826 0.00136521 22.0545 0.115507 21.7994 0.333942L12.0794 10.0539L2.35939 0.320609C2.10432 0.102174 1.77622 -0.0119672 1.44065 0.000994381C1.10509 0.0139559 0.786767 0.153065 0.549308 0.390525C0.311849 0.627984 0.172738 0.946302 0.159777 1.28187C0.146815 1.61744 0.260957 1.94554 0.479392 2.20061L10.1994 11.9339L0.466059 21.6539C0.326483 21.7735 0.213123 21.9206 0.133091 22.086C0.0530604 22.2514 0.00808623 22.4316 0.000993573 22.6152C-0.00609909 22.7988 0.0248422 22.9819 0.0918749 23.153C0.158908 23.3241 0.260585 23.4795 0.390525 23.6095C0.520465 23.7394 0.675861 23.8411 0.846961 23.9081C1.01806 23.9752 1.20117 24.0061 1.3848 23.999C1.56842 23.9919 1.7486 23.9469 1.91402 23.8669C2.07944 23.7869 2.22653 23.6735 2.34606 23.5339L12.0794 13.8139L21.7994 23.5339C22.0545 23.7524 22.3826 23.8665 22.7181 23.8536C23.0537 23.8406 23.372 23.7015 23.6095 23.464C23.8469 23.2266 23.986 22.9082 23.999 22.5727C24.012 22.2371 23.8978 21.909 23.6794 21.6539L13.9594 11.9339Z" fill="#F0940E"></path>
  </symbol>
	<symbol xmlns="http://www.w3.org/2000/svg" viewBox="0 0 20 18" id="icon-vip">
    <path d="M1 0H19C19.2652 0 19.5196 0.105357 19.7071 0.292893C19.8946 0.48043 20 0.734784 20 1V17C20 17.2652 19.8946 17.5196 19.7071 17.7071C19.5196 17.8946 19.2652 18 19 18H1C0.734784 18 0.48043 17.8946 0.292893 17.7071C0.105357 17.5196 0 17.2652 0 17V1C0 0.734784 0.105357 0.48043 0.292893 0.292893C0.48043 0.105357 0.734784 0 1 0ZM9 5.5V12.5H11V5.5H9ZM8.715 5.5H6.601L5.104 9.613L3.607 5.5H1.493L4.104 12.464H6.104L8.715 5.5ZM14 10.5H15.5C16.163 10.5 16.7989 10.2366 17.2678 9.76777C17.7366 9.29893 18 8.66304 18 8C18 7.33696 17.7366 6.70107 17.2678 6.23223C16.7989 5.76339 16.163 5.5 15.5 5.5H12V12.5H14V10.5ZM14 8.5V7.5H15.5C15.6326 7.5 15.7598 7.55268 15.8536 7.64645C15.9473 7.74021 16 7.86739 16 8C16 8.13261 15.9473 8.25979 15.8536 8.35355C15.7598 8.44732 15.6326 8.5 15.5 8.5H14Z"></path>
  </symbol>
	<symbol xmlns="http://www.w3.org/2000/svg" viewBox="0 0 21 21" id="icon-group">
    <path d="M7.00002 9.41498H6.49252C5.79996 9.38995 5.10965 9.50752 4.46442 9.7604C3.81919 10.0133 3.23281 10.396 2.74168 10.885L2.60168 11.0483V15.8783H4.98168V13.1366L5.30252 12.775L5.44835 12.6058C6.20781 11.8256 7.15331 11.2515 8.19585 10.9375C7.67388 10.5403 7.26222 10.0162 7.00002 9.41498Z" ></path>
    <path d="M18.2817 10.8675C17.7906 10.3786 17.2042 9.99581 16.559 9.74294C15.9138 9.49007 15.2235 9.3725 14.5309 9.39753C14.3185 9.39813 14.1063 9.40981 13.8951 9.43253C13.6279 9.99655 13.2275 10.4871 12.7284 10.8617C13.8414 11.1696 14.8496 11.7745 15.6451 12.6117L15.7909 12.775L16.1059 13.1367V15.8842H18.4042V11.0309L18.2817 10.8675Z"></path>
    <path d="M6.47505 8.27751H6.65588C6.57186 7.55607 6.69845 6.82573 7.02037 6.17464C7.34228 5.52356 7.84577 4.97957 8.47005 4.60834C8.24375 4.26263 7.93155 3.98161 7.56402 3.79281C7.19649 3.60401 6.78622 3.51389 6.37339 3.53129C5.96057 3.54869 5.55934 3.673 5.20899 3.89205C4.85865 4.11111 4.5712 4.41739 4.37479 4.78092C4.17838 5.14445 4.07975 5.55275 4.08855 5.96585C4.09736 6.37894 4.2133 6.78267 4.42501 7.1375C4.63673 7.49233 4.93697 7.78609 5.29633 7.99002C5.65569 8.19395 6.06186 8.30105 6.47505 8.30084V8.27751Z" ></path>
    <path d="M14.2508 7.83997C14.2579 7.97405 14.2579 8.1084 14.2508 8.24247C14.3628 8.26022 14.4758 8.26997 14.5892 8.27164H14.7C15.1114 8.2497 15.5101 8.12162 15.8572 7.89987C16.2044 7.67811 16.4883 7.37024 16.6812 7.00622C16.874 6.64221 16.9694 6.23445 16.9579 5.82265C16.9464 5.41085 16.8285 5.00904 16.6156 4.65635C16.4027 4.30365 16.1021 4.01208 15.7431 3.81003C15.3841 3.60798 14.9789 3.50233 14.567 3.50336C14.155 3.5044 13.7503 3.61209 13.3924 3.81594C13.0344 4.0198 12.7353 4.31288 12.5242 4.66664C13.0521 5.01135 13.4863 5.48173 13.7876 6.03559C14.089 6.58944 14.2482 7.20944 14.2508 7.83997Z"></path>
    <path d="M10.4242 10.4533C11.8642 10.4533 13.0317 9.28593 13.0317 7.84584C13.0317 6.40576 11.8642 5.23834 10.4242 5.23834C8.98407 5.23834 7.81665 6.40576 7.81665 7.84584C7.81665 9.28593 8.98407 10.4533 10.4242 10.4533Z"></path>
    <path d="M10.5642 11.8417C9.8024 11.8109 9.04224 11.9346 8.32948 12.2052C7.61671 12.4759 6.96607 12.888 6.41671 13.4167L6.27087 13.58V17.2725C6.27315 17.3928 6.2991 17.5114 6.34724 17.6217C6.39538 17.7319 6.46477 17.8316 6.55144 17.915C6.63811 17.9984 6.74037 18.064 6.85238 18.1078C6.96438 18.1517 7.08393 18.1731 7.20421 18.1708H13.9067C14.027 18.1731 14.1465 18.1517 14.2585 18.1078C14.3705 18.064 14.4728 17.9984 14.5595 17.915C14.6461 17.8316 14.7155 17.7319 14.7637 17.6217C14.8118 17.5114 14.8378 17.3928 14.84 17.2725V13.5917L14.7 13.4167C14.1542 12.8864 13.5059 12.4731 12.7947 12.2023C12.0835 11.9315 11.3245 11.8087 10.5642 11.8417Z"></path>
  </symbol>
	<symbol xmlns="http://www.w3.org/2000/svg" viewBox="0 0 18 19" id="icon-airplane">
    <path d="M17.375 13V11.25L10.375 6.875V2.0625C10.375 1.33625 9.78875 0.75 9.0625 0.75C8.33625 0.75 7.75 1.33625 7.75 2.0625V6.875L0.75 11.25V13L7.75 10.8125V15.625L6 16.9375V18.25L9.0625 17.375L12.125 18.25V16.9375L10.375 15.625V10.8125L17.375 13Z"></path>
  </symbol>
	<symbol fill="none" xmlns="http://www.w3.org/2000/svg" viewBox="0 0 23 27" id="icon-play">
    <path d="M22 11.7679C23.3333 12.5378 23.3333 14.4622 22 15.232L3.25 26.0574C1.91666 26.8272 0.249999 25.8649 0.249999 24.3253L0.25 2.67468C0.25 1.13508 1.91667 0.17283 3.25 0.942631L22 11.7679Z" fill="#F0940E"></path>
  </symbol>
	<symbol fill="none" xmlns="http://www.w3.org/2000/svg" viewBox="0 0 23 23" id="icon-filter">
    <path d="M21.0829 7.02777H1.91623C1.74679 7.02777 1.58428 7.09508 1.46447 7.2149C1.34466 7.33471 1.27734 7.49722 1.27734 7.66666C1.27734 7.8361 1.34466 7.99861 1.46447 8.11842C1.58428 8.23824 1.74679 8.30555 1.91623 8.30555H21.0829C21.2523 8.30555 21.4148 8.23824 21.5347 8.11842C21.6545 7.99861 21.7218 7.8361 21.7218 7.66666C21.7218 7.49722 21.6545 7.33471 21.5347 7.2149C21.4148 7.09508 21.2523 7.02777 21.0829 7.02777Z" fill="white"></path>
    <path d="M17.8893 10.8611H5.11155C4.9421 10.8611 4.7796 10.9284 4.65978 11.0482C4.53997 11.1681 4.47266 11.3306 4.47266 11.5C4.47266 11.6694 4.53997 11.832 4.65978 11.9518C4.7796 12.0716 4.9421 12.1389 5.11155 12.1389H17.8893C18.0588 12.1389 18.2213 12.0716 18.3411 11.9518C18.4609 11.832 18.5282 11.6694 18.5282 11.5C18.5282 11.3306 18.4609 11.1681 18.3411 11.0482C18.2213 10.9284 18.0588 10.8611 17.8893 10.8611Z" fill="white"></path>
    <path d="M14.6938 14.6945H8.3049C8.13546 14.6945 7.97296 14.7618 7.85314 14.8816C7.73333 15.0014 7.66602 15.1639 7.66602 15.3333C7.66602 15.5028 7.73333 15.6653 7.85314 15.7851C7.97296 15.9049 8.13546 15.9722 8.3049 15.9722H14.6938C14.8632 15.9722 15.0257 15.9049 15.1456 15.7851C15.2654 15.6653 15.3327 15.5028 15.3327 15.3333C15.3327 15.1639 15.2654 15.0014 15.1456 14.8816C15.0257 14.7618 14.8632 14.6945 14.6938 14.6945Z" fill="white"></path>
  </symbol>
	<symbol fill="none" xmlns="http://www.w3.org/2000/svg" viewBox="0 0 18 18" id="icon-facebook-white">
    <path d="M16 0H2C0.9 0 0 0.9 0 2V16C0 17.101 0.9 18 2 18H9V11H7V8.525H9V6.475C9 4.311 10.212 2.791 12.766 2.791L14.569 2.793V5.398H13.372C12.378 5.398 12 6.144 12 6.836V8.526H14.568L14 11H12V18H16C17.1 18 18 17.101 18 16V2C18 0.9 17.1 0 16 0Z" fill="white"></path>
  </symbol>
	<symbol fill="none" xmlns="http://www.w3.org/2000/svg" viewBox="0 0 18 16" id="icon-print-white">
    <path d="M5.875 0.5C5.37772 0.5 4.90081 0.697544 4.54917 1.04917C4.19754 1.40081 4 1.87772 4 2.375V3H2.75C2.08696 3 1.45107 3.26339 0.982233 3.73223C0.513392 4.20107 0.25 4.83696 0.25 5.5V11.125C0.25 11.6223 0.447544 12.0992 0.799175 12.4508C1.15081 12.8025 1.62772 13 2.125 13H4V13.625C4 14.1223 4.19754 14.5992 4.54917 14.9508C4.90081 15.3025 5.37772 15.5 5.875 15.5H12.25C12.7473 15.5 13.2242 15.3025 13.5758 14.9508C13.9275 14.5992 14.125 14.1223 14.125 13.625V13H15.875C16.3723 13 16.8492 12.8025 17.2008 12.4508C17.5525 12.0992 17.75 11.6223 17.75 11.125V5.5C17.75 4.83696 17.4866 4.20107 17.0178 3.73223C16.5489 3.26339 15.913 3 15.25 3H14V2.375C14 1.87772 13.8025 1.40081 13.4508 1.04917C13.0992 0.697544 12.6223 0.5 12.125 0.5H5.875ZM12.75 3H5.25V2.375C5.25 2.20924 5.31585 2.05027 5.43306 1.93306C5.55027 1.81585 5.70924 1.75 5.875 1.75H12.125C12.2908 1.75 12.4497 1.81585 12.5669 1.93306C12.6842 2.05027 12.75 2.20924 12.75 2.375V3ZM5.875 10.5H12.25C12.4158 10.5 12.5747 10.5658 12.6919 10.6831C12.8092 10.8003 12.875 10.9592 12.875 11.125V13.625C12.875 13.7908 12.8092 13.9497 12.6919 14.0669C12.5747 14.1842 12.4158 14.25 12.25 14.25H5.875C5.70924 14.25 5.55027 14.1842 5.43306 14.0669C5.31585 13.9497 5.25 13.7908 5.25 13.625V11.125C5.25 10.9592 5.31585 10.8003 5.43306 10.6831C5.55027 10.5658 5.70924 10.5 5.875 10.5Z" fill="white"></path>
  </symbol>
	<symbol xmlns="http://www.w3.org/2000/svg" viewBox="0 0 21 17" id="icon-mail-white">
    <path d="M17.2096 0.833328H3.79297C3.03047 0.833328 2.2992 1.13623 1.76004 1.6754C1.22087 2.21456 0.917969 2.94583 0.917969 3.70833V13.2917C0.917969 14.0542 1.22087 14.7854 1.76004 15.3246C2.2992 15.8638 3.03047 16.1667 3.79297 16.1667H17.2096C17.9721 16.1667 18.7034 15.8638 19.2426 15.3246C19.7817 14.7854 20.0846 14.0542 20.0846 13.2917V3.70833C20.0846 2.94583 19.7817 2.21456 19.2426 1.6754C18.7034 1.13623 17.9721 0.833328 17.2096 0.833328ZM17.2096 2.74999L10.9805 7.03374C10.8348 7.11786 10.6695 7.16214 10.5013 7.16214C10.3331 7.16214 10.1678 7.11786 10.0221 7.03374L3.79297 2.74999H17.2096Z"></path>
  </symbol>
	<symbol fill="none" xmlns="http://www.w3.org/2000/svg" viewBox="0 0 16 14" id="icon-image">
    <path d="M2.00195 0C1.47152 0 0.962812 0.210714 0.58774 0.585786C0.212667 0.960859 0.00195313 1.46957 0.00195312 2V12C0.00195313 12.5304 0.212667 13.0391 0.58774 13.4142C0.962812 13.7893 1.47152 14 2.00195 14H14.002C14.5324 14 15.0411 13.7893 15.4162 13.4142C15.7912 13.0391 16.002 12.5304 16.002 12V2C16.002 1.46957 15.7912 0.960859 15.4162 0.585786C15.0411 0.210714 14.5324 0 14.002 0H2.00195ZM14.002 1C14.2672 1 14.5215 1.10536 14.7091 1.29289C14.8966 1.48043 15.002 1.73478 15.002 2V8.5L11.225 6.553C11.1312 6.50602 11.025 6.48973 10.9215 6.50642C10.8179 6.52311 10.7222 6.57194 10.648 6.646L6.93795 10.356L4.27795 8.584C4.18191 8.52006 4.06672 8.4913 3.95189 8.5026C3.83707 8.5139 3.72969 8.56456 3.64795 8.646L1.00195 11V2C1.00195 1.73478 1.10731 1.48043 1.29485 1.29289C1.48238 1.10536 1.73674 1 2.00195 1H14.002Z" fill="black"></path>
  </symbol>
	<symbol fill="none" xmlns="http://www.w3.org/2000/svg" viewBox="0 0 17 18" id="icon-share">
    <path d="M3.5841 11.5C4.31298 11.4978 5.01428 11.2211 5.54826 10.725L10.7649 13.7058C10.5901 14.3888 10.6672 15.1119 10.982 15.7428C11.2968 16.3736 11.8282 16.87 12.4791 17.141C13.1299 17.412 13.8566 17.4396 14.5261 17.2186C15.1956 16.9976 15.7631 16.5429 16.1247 15.9377C16.4864 15.3325 16.6179 14.6173 16.4953 13.923C16.3728 13.2288 16.0042 12.6019 15.4572 12.1571C14.9102 11.7123 14.2213 11.4795 13.5166 11.5011C12.8119 11.5228 12.1386 11.7975 11.6199 12.275L6.40326 9.29417C6.45826 9.08583 6.48826 8.87 6.49326 8.65417L11.6183 5.725C12.1117 6.17398 12.7446 6.43959 13.4107 6.47726C14.0768 6.51494 14.7356 6.3224 15.2766 5.93193C15.8175 5.54146 16.2078 4.97684 16.3818 4.33277C16.5558 3.6887 16.503 3.00438 16.2323 2.39461C15.9616 1.78484 15.4894 1.28673 14.8949 0.983831C14.3005 0.680933 13.62 0.591683 12.9675 0.731052C12.3151 0.870422 11.7304 1.22993 11.3116 1.74927C10.8928 2.26861 10.6654 2.91618 10.6674 3.58333C10.6708 3.82333 10.7033 4.0625 10.7649 4.29417L6.02826 7C5.75358 6.57505 5.37306 6.22887 4.92411 5.99548C4.47516 5.76208 3.97321 5.6495 3.46758 5.66879C2.96195 5.68808 2.47003 5.83859 2.04017 6.10551C1.6103 6.37244 1.25727 6.7466 1.01577 7.19125C0.774259 7.63589 0.652583 8.13571 0.662692 8.64161C0.672801 9.1475 0.814347 9.64207 1.07342 10.0767C1.3325 10.5113 1.7002 10.8711 2.14038 11.1207C2.58057 11.3702 3.0781 11.5009 3.5841 11.5Z" fill="white"></path>
  </symbol>
	<symbol fill="none" xmlns="http://www.w3.org/2000/svg" viewBox="0 0 86 72" id="icon-twitter-big">
    <path d="M27.1551 71.0027C59.3936 71.0027 77.0236 44.0705 77.0236 20.7159C77.0236 19.9509 77.0082 19.1894 76.9742 18.4314C80.3964 15.9366 83.3709 12.8234 85.7169 9.27939C82.5765 10.687 79.197 11.6346 75.6518 12.0618C79.2704 9.87377 82.0485 6.41252 83.3591 2.28632C79.9727 4.31071 76.2225 5.78205 72.2295 6.57642C69.0312 3.1411 64.4778 0.992432 59.4359 0.992432C49.7569 0.992432 41.9079 8.90749 41.9079 18.6639C41.9079 20.0508 42.0617 21.3999 42.3624 22.6939C27.7955 21.9547 14.8785 14.9219 6.23383 4.228C4.7286 6.83987 3.86066 9.87386 3.86066 13.1112C3.86066 19.2429 6.95494 24.6561 11.6603 27.8229C8.78473 27.7333 6.08347 26.9373 3.72248 25.6124C3.7199 25.6865 3.71989 25.7588 3.71989 25.8381C3.71989 34.3975 9.7614 41.5439 17.7812 43.1633C16.3084 43.5681 14.7589 43.7852 13.1595 43.7852C12.0319 43.7852 10.9333 43.6733 9.86545 43.4665C12.0968 50.4889 18.5672 55.5991 26.2384 55.7419C20.2396 60.4832 12.6828 63.3072 4.46982 63.3072C3.05684 63.3072 1.66096 63.2261 0.289062 63.0625C8.04598 68.0762 17.2566 71.0016 27.1561 71.0016" fill="white"></path>
  </symbol>
	<symbol fill="none" xmlns="http://www.w3.org/2000/svg" viewBox="0 0 76 76" id="icon-insta-big">
    <path d="M37.9991 0.90918C27.9262 0.90918 26.662 0.953226 22.7058 1.13327C18.7573 1.31409 16.0621 1.93923 13.7038 2.85645C11.2643 3.80382 9.19505 5.07109 7.13347 7.1335C5.07035 9.19513 3.80312 11.2645 2.85269 13.7032C1.93317 16.0624 1.30728 18.7584 1.12956 22.7055C0.952612 26.6619 0.90625 27.9268 0.90625 38.0001C0.90625 48.0734 0.951068 49.3337 1.13033 53.29C1.31192 57.2387 1.93704 59.9339 2.85346 62.2923C3.80157 64.7318 5.06881 66.8012 7.13115 68.8628C9.19195 70.926 11.2613 72.1964 13.6991 73.1437C16.059 74.061 18.7549 74.6861 22.7027 74.8669C26.6589 75.047 27.9223 75.091 37.9945 75.091C48.0682 75.091 49.3285 75.047 53.2848 74.8669C57.2333 74.6861 59.9316 74.061 62.2914 73.1437C64.7301 72.1964 66.7963 70.926 68.8571 68.8628C70.9202 66.8012 72.1874 64.7318 73.1378 62.2931C74.0496 59.934 74.6755 57.2379 74.861 53.2908C75.0387 49.3345 75.0851 48.0734 75.0851 38.0001C75.0851 27.9268 75.0387 26.6626 74.861 22.7063C74.6755 18.7576 74.0496 16.0624 73.1378 13.704C72.1874 11.2645 70.9202 9.19513 68.8571 7.1335C66.794 5.07032 64.7308 3.80304 62.2891 2.85645C59.9246 1.93923 57.2279 1.31409 53.2794 1.13327C49.3231 0.953226 48.0636 0.90918 37.9875 0.90918H37.9991ZM34.6719 7.59327C35.6594 7.59172 36.7613 7.59327 37.9991 7.59327C47.9021 7.59327 49.0758 7.62882 52.9865 7.80654C56.6028 7.97191 58.5654 8.57618 59.8728 9.08386C61.6037 9.75613 62.8377 10.5598 64.1351 11.858C65.4332 13.1561 66.2368 14.3925 66.9106 16.1234C67.4183 17.4293 68.0233 19.392 68.1879 23.0084C68.3656 26.9184 68.4043 28.093 68.4043 37.9916C68.4043 47.8902 68.3656 49.0648 68.1879 52.9748C68.0225 56.5911 67.4183 58.5539 66.9106 59.8598C66.2384 61.5907 65.4332 62.8232 64.1351 64.1206C62.8369 65.4188 61.6045 66.2224 59.8728 66.8947C58.567 67.4047 56.6028 68.0074 52.9865 68.1728C49.0766 68.3505 47.9021 68.3891 37.9991 68.3891C28.0954 68.3891 26.9216 68.3505 23.0118 68.1728C19.3955 68.0059 17.4328 67.4016 16.1247 66.8939C14.3938 66.2216 13.1575 65.418 11.8593 64.1198C10.5612 62.8216 9.75757 61.5884 9.08378 59.8567C8.57611 58.5508 7.97108 56.588 7.8065 52.9717C7.62878 49.0617 7.59323 47.8871 7.59323 37.9823C7.59323 28.0775 7.62878 26.9091 7.8065 22.9991C7.97186 19.3828 8.57611 17.42 9.08378 16.1126C9.75603 14.3817 10.5612 13.1453 11.8593 11.8471C13.1575 10.549 14.3938 9.74532 16.1247 9.0715C17.4321 8.5615 19.3955 7.95877 23.0118 7.79263C26.4333 7.63809 27.7593 7.59173 34.6719 7.584V7.59327ZM57.7974 13.7519C55.3402 13.7519 53.3466 15.7432 53.3466 18.2013C53.3466 20.6585 55.3402 22.6522 57.7974 22.6522C60.2546 22.6522 62.2481 20.6585 62.2481 18.2013C62.2481 15.744 60.2546 13.7504 57.7974 13.7504V13.7519ZM37.9991 18.9524C27.4803 18.9524 18.952 27.481 18.952 38.0001C18.952 48.5192 27.4803 57.0439 37.9991 57.0439C48.518 57.0439 57.0432 48.5192 57.0432 38.0001C57.0432 27.481 48.5172 18.9524 37.9984 18.9524H37.9991ZM37.9991 25.6365C44.8267 25.6365 50.3624 31.1715 50.3624 38.0001C50.3624 44.8279 44.8267 50.3637 37.9991 50.3637C31.1707 50.3637 25.6359 44.8279 25.6359 38.0001C25.6359 31.1715 31.1707 25.6365 37.9991 25.6365Z" fill="white"></path>
  </symbol>
	<symbol fill="none" xmlns="http://www.w3.org/2000/svg" viewBox="0 0 40 73" id="icon-facebook-big">
    <path d="M36.5166 41.0078L38.5117 28H26.0312V19.5587C26.0312 16 27.7746 12.5312 33.3647 12.5312H39.0391V1.45702C39.0391 1.45702 33.8893 0.57811 28.9659 0.57811C18.6869 0.57811 11.9687 6.8078 11.9687 18.0859V28H0.542969V41.0078H11.9687V72.4533C14.2598 72.8128 16.608 73 19 73C21.392 73 23.7402 72.8128 26.0312 72.4533V41.0078H36.5166Z" fill="white"></path>
  </symbol>
	<symbol fill="none" xmlns="http://www.w3.org/2000/svg" viewBox="0 0 101 101" id="icon-advantage-1">
    <path d="M77.2502 4.53129C77.2516 3.77007 77.0269 3.02559 76.6046 2.39222C76.1824 1.75885 75.5816 1.26513 74.8783 0.973638C74.1751 0.682147 73.4012 0.606017 72.6547 0.7549C71.9082 0.903782 71.2227 1.27097 70.6851 1.80992L55.3101 17.1849C54.9534 17.5425 54.6707 17.967 54.4781 18.4339C54.2855 18.9009 54.1868 19.4012 54.1877 19.9063V41.3775L48.4913 47.0662C47.3517 46.7638 46.158 46.7271 45.002 46.9587C43.846 47.1904 42.7585 47.6844 41.8235 48.4025C40.8885 49.1207 40.1308 50.0439 39.6088 51.101C39.0868 52.1582 38.8145 53.321 38.8127 54.5C38.8132 55.5941 39.0472 56.6754 39.4991 57.6718C39.951 58.6681 40.6103 59.5565 41.4331 60.2777C42.2558 60.9988 43.223 61.536 44.27 61.8534C45.317 62.1708 46.4196 62.2611 47.5043 62.1182C48.589 61.9753 49.6306 61.6025 50.5597 61.0248C51.4888 60.4471 52.2838 59.6777 52.8917 58.7681C53.4996 57.8585 53.9064 56.8296 54.0848 55.7502C54.2632 54.6709 54.2092 53.5658 53.9263 52.509L59.6228 46.8125H81.094C81.5991 46.8134 82.0994 46.7148 82.5664 46.5222C83.0333 46.3296 83.4577 46.0469 83.8154 45.6902L99.1904 30.3152C99.7293 29.7776 100.096 29.0921 100.245 28.3456C100.394 27.599 100.318 26.8251 100.027 26.1219C99.7351 25.4187 99.2414 24.8179 98.608 24.3956C97.9747 23.9734 97.2302 23.7487 96.469 23.75H77.2502V4.53129ZM92.1947 48.1809C93.5175 57.7532 91.8006 67.4991 87.2863 76.043C82.772 84.5869 75.6884 91.4973 67.0353 95.7986C58.3822 100.1 48.5967 101.575 39.0602 100.015C29.5236 98.456 20.7177 93.9408 13.8855 87.1072C7.05322 80.2736 2.53973 71.4668 0.982112 61.93C-0.575502 52.3931 0.901436 42.608 5.20444 33.9557C9.50745 25.3034 16.4192 18.2211 24.964 13.7085C33.5088 9.19587 43.2551 7.48085 52.827 8.80554L49.8827 11.7499C48.8107 12.8205 47.9602 14.092 47.3798 15.4915C46.7994 16.891 46.5005 18.3912 46.5002 19.9063C39.6582 19.9063 32.9699 21.9352 27.281 25.7364C21.5921 29.5376 17.1581 34.9404 14.5398 41.2616C11.9215 47.5828 11.2364 54.5384 12.5712 61.249C13.906 67.9595 17.2007 74.1235 22.0387 78.9615C26.8768 83.7995 33.0408 87.0943 39.7513 88.4291C46.4619 89.7639 53.4175 89.0788 59.7387 86.4605C66.0599 83.8422 71.4627 79.4082 75.2639 73.7193C79.0651 68.0304 81.094 61.342 81.094 54.5C84.1512 54.4974 87.0823 53.2807 89.2427 51.1175L92.1947 48.1809ZM46.5002 27.5938C41.1787 27.5938 35.9766 29.1718 31.5519 32.1283C27.1272 35.0848 23.6786 39.287 21.6421 44.2035C19.6056 49.1199 19.0728 54.5299 20.111 59.7492C21.1492 64.9685 23.7117 69.7627 27.4746 73.5256C31.2375 77.2885 36.0318 79.8511 41.2511 80.8893C46.4704 81.9275 51.8803 81.3947 56.7968 79.3582C61.7133 77.3217 65.9155 73.8731 68.872 69.4484C71.8285 65.0237 73.4065 59.8216 73.4065 54.5H62.8054L61.8445 55.461C61.6597 58.4143 60.6265 61.2516 58.8691 63.6323C57.1116 66.0129 54.7045 67.8359 51.9366 68.8823C49.1687 69.9287 46.1576 70.1542 43.2648 69.5317C40.3719 68.9091 37.7201 67.465 35.6277 65.3726C33.5353 63.2801 32.0912 60.6284 31.4686 57.7355C30.8461 54.8426 31.0715 51.8316 32.118 49.0637C33.1644 46.2958 34.9873 43.8886 37.368 42.1312C39.7487 40.3737 42.586 39.3406 45.5393 39.1558L46.5002 38.1949V27.5938Z" fill="#F0940E"></path>
  </symbol>
	<symbol fill="none" xmlns="http://www.w3.org/2000/svg" viewBox="0 0 103 103" id="icon-advantage-2">
    <path d="M51.5 0.25C23.2407 0.25 0.25 23.2407 0.25 51.5C0.25 79.7592 23.2407 102.75 51.5 102.75C79.7592 102.75 102.75 79.7592 102.75 51.5C102.75 23.2407 79.7592 0.25 51.5 0.25ZM31 36.125C42.2801 36.125 46.375 45.3193 46.375 51.5H36.125C36.0635 49.1937 35.1307 46.375 31 46.375C26.8692 46.375 25.9365 49.1937 25.875 51.5615L15.625 51.5C15.625 45.3193 19.7199 36.125 31 36.125ZM51.5 82.25C31 82.25 25.875 61.75 25.875 61.75H77.125C77.125 61.75 72 82.25 51.5 82.25ZM77.125 51.5C77.0635 49.1937 76.1308 46.375 72 46.375C67.8692 46.375 66.9365 49.1937 66.875 51.5615L56.625 51.5C56.625 45.3193 60.7199 36.125 72 36.125C83.2801 36.125 87.375 45.3193 87.375 51.5H77.125Z" fill="#F0940E"></path>
  </symbol>
	<symbol fill="none" xmlns="http://www.w3.org/2000/svg" viewBox="0 0 73 103" id="icon-advantage-3">
    <path d="M62.125 0.25H41.625V21.0524C48.9605 21.8587 55.993 24.4238 62.125 28.5298V0.25ZM31.375 0.25H10.875V28.5298C17.007 24.4238 24.0395 21.8587 31.375 21.0524V0.25ZM36.5 102.75C46.0146 102.75 55.1396 98.9703 61.8675 92.2425C68.5953 85.5146 72.375 76.3896 72.375 66.875C72.375 57.3604 68.5953 48.2354 61.8675 41.5075C55.1396 34.7797 46.0146 31 36.5 31C26.9854 31 17.8604 34.7797 11.1325 41.5075C4.40468 48.2354 0.625 57.3604 0.625 66.875C0.625 76.3896 4.40468 85.5146 11.1325 92.2425C17.8604 98.9703 26.9854 102.75 36.5 102.75ZM30.2219 59.0901L36.5 46.375L42.7781 59.0901L56.8104 61.1248L46.6578 71.0263L49.0562 85.0021L36.5 78.4062L23.9489 85.0021L26.3474 71.0263L16.1948 61.1248L30.2219 59.0901Z" fill="#F0940E"></path>
  </symbol>
	<symbol fill="none" xmlns="http://www.w3.org/2000/svg" viewBox="0 0 111 117" id="icon-advantage-4">
    <path d="M89.5788 11.6063L92.705 31.3888L110.694 40.5625L101.623 58.5L110.745 76.4375L92.6025 85.6113L89.4762 105.394L69.54 102.268L55.3438 116.413L41.0962 102.063L21.3137 105.343L18.1362 85.4063L0.25 76.2838L9.3725 58.3463L0.30125 40.5625L18.29 31.2863L21.4163 11.6575L41.25 14.9375L55.4975 0.536255L69.6937 14.7325L89.5788 11.6063ZM42.685 32.875C40.6461 32.875 38.6908 33.6849 37.2491 35.1266C35.8074 36.5683 34.9975 38.5237 34.9975 40.5625C34.9975 42.6014 35.8074 44.5567 37.2491 45.9984C38.6908 47.4401 40.6461 48.25 42.685 48.25C44.7239 48.25 46.6792 47.4401 48.1209 45.9984C49.5626 44.5567 50.3725 42.6014 50.3725 40.5625C50.3725 38.5237 49.5626 36.5683 48.1209 35.1266C46.6792 33.6849 44.7239 32.875 42.685 32.875ZM68.31 68.75C66.2711 68.75 64.3158 69.5599 62.8741 71.0016C61.4324 72.4433 60.6225 74.3987 60.6225 76.4375C60.6225 78.4764 61.4324 80.4317 62.8741 81.8734C64.3158 83.3151 66.2711 84.125 68.31 84.125C70.3489 84.125 72.3042 83.3151 73.7459 81.8734C75.1876 80.4317 75.9975 78.4764 75.9975 76.4375C75.9975 74.3987 75.1876 72.4433 73.7459 71.0016C72.3042 69.5599 70.3489 68.75 68.31 68.75ZM37.0987 84.125L81.1225 40.1013L73.8962 32.875L29.8725 76.8988L37.0987 84.125Z" fill="#F0940E"></path>
  </symbol>
	<symbol fill="none" xmlns="http://www.w3.org/2000/svg" viewBox="0 0 45 32" id="icon-russia-flag">
    <g clip-path="url(#clip0_264_9153)">
      <rect width="45" height="32" rx="3" fill="#1A47B8"></rect>
      <path fill-rule="evenodd" clip-rule="evenodd" d="M0 21.3333H45V32H0V21.3333Z" fill="#F93939"></path>
      <path fill-rule="evenodd" clip-rule="evenodd" d="M0 0H45V10.6667H0V0Z" fill="white"></path>
    </g>
    <defs>
      <clipPath id="clip0_264_9153">
        <rect width="45" height="32" rx="3" fill="white"></rect>
      </clipPath>
    </defs>
  </symbol>
	<symbol fill="none" xmlns="http://www.w3.org/2000/svg" viewBox="0 0 46 32" id="icon-belorussia-flag">
    <g clip-path="url(#clip0_264_9152)">
      <rect width="46" height="32" rx="3" fill="#F93939"></rect>
      <path d="M41.619 0H4.38095C1.96142 0 0 1.91025 0 4.26667V27.7333C0 30.0898 1.96142 32 4.38095 32H41.619C44.0386 32 46 30.0898 46 27.7333V4.26667C46 1.91025 44.0386 0 41.619 0Z" fill="#F93939"></path>
      <path fill-rule="evenodd" clip-rule="evenodd" d="M10.9531 23.4667H46.0007V32H10.9531V23.4667Z" fill="#249F58"></path>
      <path fill-rule="evenodd" clip-rule="evenodd" d="M6.57143 0L10.9524 3.2L6.57143 6.4V0ZM6.57143 6.4L10.9524 9.6L6.57143 12.8V6.4ZM6.57143 12.8L10.9524 16L6.57143 19.2V12.8ZM6.57143 19.2L10.9524 22.4L6.57143 25.6V19.2ZM6.57143 25.6L10.9524 28.8L6.57143 32V25.6ZM4.38095 0L0 3.2L4.38095 6.4V0ZM4.38095 6.4L0 9.6L4.38095 12.8V6.4ZM4.38095 12.8L0 16L4.38095 19.2V12.8ZM4.38095 19.2L0 22.4L4.38095 25.6V19.2ZM4.38095 25.6L0 28.8L4.38095 32V25.6ZM4.38095 0H6.57143V4.26667H4.38095V0ZM4.38095 27.7333H6.57143V32H4.38095V27.7333ZM4.38095 10.6667H6.57143V14.9333H4.38095V10.6667ZM4.38095 6.4H6.57143V8.53333H4.38095V6.4ZM4.38095 23.4667H6.57143V25.6H4.38095V23.4667ZM4.38095 17.0667H6.57143V21.3333H4.38095V17.0667Z" fill="white"></path>
    </g>
    <defs>
      <clipPath id="clip0_264_9152">
        <rect width="46" height="32" rx="3" fill="white"></rect>
      </clipPath>
    </defs>
  </symbol>
	<symbol fill="none" xmlns="http://www.w3.org/2000/svg" viewBox="0 0 46 32" id="icon-uk-flag">
    <rect width="46" height="32" rx="3" fill="#FFDA2C"></rect>
    <path fill-rule="evenodd" clip-rule="evenodd" d="M0 0H46V17.0667H0V0Z" fill="#3A99FF"></path>
  </symbol>
	<symbol fill="none" xmlns="http://www.w3.org/2000/svg" viewBox="0 0 45 32" id="icon-china-flag">
    <g clip-path="url(#clip0_264_9148)">
      <rect width="45" height="32" rx="3" fill="#F93939"></rect>
      <path d="M40.7143 0H4.28571C1.91878 0 0 1.91025 0 4.26667V27.7333C0 30.0898 1.91878 32 4.28571 32H40.7143C43.0812 32 45 30.0898 45 27.7333V4.26667C45 1.91025 43.0812 0 40.7143 0Z" fill="#F93939"></path>
      <path fill-rule="evenodd" clip-rule="evenodd" d="M11.7813 15.424L8.63126 17.0731L9.23126 13.5808L6.68555 11.1061L10.2063 10.6005L11.7813 7.42186L13.3541 10.6005L16.8748 11.1061L14.3248 13.5808L14.9291 17.0709L11.7813 15.424ZM19.2855 6.39999H21.4284V8.53333H19.2855V6.39999ZM21.4284 10.6667H23.5713V12.8H21.4284V10.6667ZM21.4284 14.9333H23.5713V17.0667H21.4284V14.9333ZM19.2855 19.2H21.4284V21.3333H19.2855V19.2Z" fill="#FFDA2C"></path>
    </g>
    <defs>
      <clipPath id="clip0_264_9148">
        <rect width="45" height="32" rx="3" fill="white"></rect>
      </clipPath>
    </defs>
  </symbol>
	<symbol fill="none" xmlns="http://www.w3.org/2000/svg" viewBox="0 0 47 32" id="icon-england-flag">
    <g clip-path="url(#clip0_264_9147)">
      <rect width="47" height="32" rx="3" fill="#1A47B8"></rect>
      <path fill-rule="evenodd" clip-rule="evenodd" d="M4.99984 0H0V5.33333L41.973 32L47 32V26.6667L4.99984 0Z" fill="white"></path>
      <path d="M1.6676 0L47 28.8756V32H45.3715L0 3.09453V0H1.6676Z" fill="#F93939"></path>
      <path fill-rule="evenodd" clip-rule="evenodd" d="M42.5238 1.52588e-05H47V5.33335C47 5.33335 17.9267 23.0999 4.47619 32H0V26.6667L42.5238 1.52588e-05Z" fill="white"></path>
      <path d="M47 0H45.482L0 28.9005V32H1.6676L47 3.1179V0Z" fill="#F93939"></path>
      <path fill-rule="evenodd" clip-rule="evenodd" d="M17.0925 0H29.9466V9.87054H47V22.1229H29.9466V32H17.0925V22.1229H0V9.87054H17.0925V0Z" fill="white"></path>
      <path fill-rule="evenodd" clip-rule="evenodd" d="M19.7895 0H27.2105V12.3077H47V19.6923H27.2105V32H19.7895V19.6923H0V12.3077H19.7895V0Z" fill="#F93939"></path>
    </g>
    <defs>
      <clipPath id="clip0_264_9147">
        <rect width="47" height="32" rx="3" fill="white"></rect>
      </clipPath>
    </defs>
  </symbol>
	<symbol fill="none" xmlns="http://www.w3.org/2000/svg" viewBox="0 0 45 32" id="icon-india-flag">
    <g clip-path="url(#clip0_264_9150)">
      <rect width="45" height="32" rx="3" fill="white"></rect>
      <path fill-rule="evenodd" clip-rule="evenodd" d="M0 21.3333H45V32H0V21.3333Z" fill="#249F58"></path>
      <path fill-rule="evenodd" clip-rule="evenodd" d="M22.4997 21.3333C25.4569 21.3333 27.8569 18.944 27.8569 16C27.8569 13.056 25.4569 10.6667 22.4997 10.6667C19.5426 10.6667 17.1426 13.056 17.1426 16C17.1426 18.944 19.5426 21.3333 22.4997 21.3333ZM22.4997 19.2C24.274 19.2 25.714 17.7664 25.714 16C25.714 14.2336 24.274 12.8 22.4997 12.8C20.7254 12.8 19.2854 14.2336 19.2854 16C19.2854 17.7664 20.7254 19.2 22.4997 19.2Z" fill="#1A47B8"></path>
      <path d="M22.4992 17.0667C23.0909 17.0667 23.5706 16.5891 23.5706 16C23.5706 15.4109 23.0909 14.9333 22.4992 14.9333C21.9074 14.9333 21.4277 15.4109 21.4277 16C21.4277 16.5891 21.9074 17.0667 22.4992 17.0667Z" fill="#1A47B8"></path>
      <path fill-rule="evenodd" clip-rule="evenodd" d="M0 0H45V10.6667H0V0Z" fill="#FF6C2D"></path>
    </g>
    <defs>
      <clipPath id="clip0_264_9150">
        <rect width="45" height="32" rx="3" fill="white"></rect>
      </clipPath>
    </defs>
  </symbol>
	<symbol fill="none" xmlns="http://www.w3.org/2000/svg" viewBox="0 0 45 32" id="icon-latvia-flag">
    <g clip-path="url(#clip0_264_9146)">
      <rect width="45" height="32" rx="3" fill="white"></rect>
      <path fill-rule="evenodd" clip-rule="evenodd" d="M0 19.2H45V32H0V19.2ZM0 0H45V12.8H0V0Z" fill="#AF010D"></path>
    </g>
    <defs>
      <clipPath id="clip0_264_9146">
        <rect width="45" height="32" rx="3" fill="white"></rect>
      </clipPath>
    </defs>
  </symbol>
	<symbol fill="none" xmlns="http://www.w3.org/2000/svg" viewBox="0 0 45 32" id="icon-tailand-flag">
    <rect width="45" height="32" rx="3" fill="#F93939"></rect>
    <path fill-rule="evenodd" clip-rule="evenodd" d="M0 21.3333H45V25.6H0V21.3333Z" fill="white"></path>
    <path fill-rule="evenodd" clip-rule="evenodd" d="M0 10.6667H45V21.3333H0V10.6667Z" fill="#1A47B8"></path>
    <path fill-rule="evenodd" clip-rule="evenodd" d="M0 6.39999H45V10.6667H0V6.39999Z" fill="white"></path>
  </symbol>
	<symbol fill="none" xmlns="http://www.w3.org/2000/svg" viewBox="0 0 47 32" id="icon-usa-flag">
    <g clip-path="url(#clip0_264_9149)">
      <rect width="47" height="32" rx="3" fill="white"></rect>
      <path fill-rule="evenodd" clip-rule="evenodd" d="M0 0H20.1429V14.9333H0V0Z" fill="#1A47B8"></path>
      <path fill-rule="evenodd" clip-rule="evenodd" d="M20.1429 0V2.13333H47V0H20.1429ZM20.1429 4.26667V6.4H47V4.26667H20.1429ZM20.1429 8.53333V10.6667H47V8.53333H20.1429ZM20.1429 12.8V14.9333H47V12.8H20.1429ZM0 17.0667V19.2H47V17.0667H0ZM0 21.3333V23.4667H47V21.3333H0ZM0 25.6V27.7333H47V25.6H0ZM0 29.8667V32H47V29.8667H0Z" fill="#F93939"></path>
      <path fill-rule="evenodd" clip-rule="evenodd" d="M2.23828 2.13333V4.26666H4.47638V2.13333H2.23828ZM6.71447 2.13333V4.26666H8.95257V2.13333H6.71447ZM11.1907 2.13333V4.26666H13.4288V2.13333H11.1907ZM15.6669 2.13333V4.26666H17.9049V2.13333H15.6669ZM13.4288 4.26666V6.4H15.6669V4.26666H13.4288ZM8.95257 4.26666V6.4H11.1907V4.26666H8.95257ZM4.47638 4.26666V6.4H6.71447V4.26666H4.47638ZM2.23828 6.4V8.53333H4.47638V6.4H2.23828ZM6.71447 6.4V8.53333H8.95257V6.4H6.71447ZM11.1907 6.4V8.53333H13.4288V6.4H11.1907ZM15.6669 6.4V8.53333H17.9049V6.4H15.6669ZM2.23828 10.6667V12.8H4.47638V10.6667H2.23828ZM6.71447 10.6667V12.8H8.95257V10.6667H6.71447ZM11.1907 10.6667V12.8H13.4288V10.6667H11.1907ZM15.6669 10.6667V12.8H17.9049V10.6667H15.6669ZM13.4288 8.53333V10.6667H15.6669V8.53333H13.4288ZM8.95257 8.53333V10.6667H11.1907V8.53333H8.95257ZM4.47638 8.53333V10.6667H6.71447V8.53333H4.47638Z" fill="white"></path>
    </g>
    <defs>
      <clipPath id="clip0_264_9149">
        <rect width="47" height="32" rx="3" fill="white"></rect>
      </clipPath>
    </defs>
  </symbol>
	<symbol fill="none" xmlns="http://www.w3.org/2000/svg" viewBox="0 0 15 27" id="icon-back">
    <path d="M13.286 2L1.85742 13.4286L13.286 24.8571" stroke="white" stroke-width="2.5" stroke-linecap="round"></path>
  </symbol>
	<symbol fill="none" xmlns="http://www.w3.org/2000/svg" viewBox="0 0 26 20" id="icon-ok">
    <path d="M8.02871 15.8765L2.65771 10.5534C2.51727 10.4125 2.35 10.3007 2.1656 10.2243C1.98121 10.148 1.78335 10.1086 1.58352 10.1086C1.38368 10.1086 1.18582 10.148 1.00143 10.2243C0.817034 10.3007 0.649764 10.4125 0.509316 10.5534C0.367154 10.6926 0.254284 10.8584 0.177249 11.0411C0.100214 11.2239 0.0605469 11.42 0.0605469 11.618C0.0605469 11.8161 0.100214 12.0122 0.177249 12.1949C0.254284 12.3777 0.367154 12.5435 0.509316 12.6826L6.93917 19.0551C7.53765 19.6483 8.50443 19.6483 9.10291 19.0551L25.3694 2.949C25.5115 2.8098 25.6244 2.64403 25.7014 2.46128C25.7785 2.27853 25.8181 2.08244 25.8181 1.88438C25.8181 1.68633 25.7785 1.49024 25.7014 1.30749C25.6244 1.12474 25.5115 0.958961 25.3694 0.819766C25.2289 0.678872 25.0616 0.567008 24.8772 0.490661C24.6928 0.414313 24.495 0.375 24.2952 0.375C24.0953 0.375 23.8975 0.414313 23.7131 0.490661C23.5287 0.567008 23.3614 0.678872 23.221 0.819766L8.02871 15.8765Z" fill="white"></path>
  </symbol>
	<symbol fill="none" xmlns="http://www.w3.org/2000/svg" viewBox="0 0 15 16" id="icon-search-grey">
    <path d="M14 14.6244L10.687 11.3114L14 14.6244ZM10.687 11.3114C11.2187 10.7796 11.6405 10.1483 11.9283 9.45353C12.2161 8.75876 12.3642 8.0141 12.3642 7.26208C12.3642 6.51006 12.2161 5.7654 11.9283 5.07063C11.6405 4.37585 11.2187 3.74456 10.687 3.2128C10.1552 2.68104 9.52391 2.25923 8.82913 1.97144C8.13435 1.68366 7.3897 1.53554 6.63768 1.53554C5.88566 1.53554 5.141 1.68366 4.44622 1.97144C3.75145 2.25923 3.12016 2.68105 2.5884 3.2128C1.51446 4.28674 0.911133 5.74331 0.911133 7.26208C0.911133 8.78086 1.51446 10.2374 2.5884 11.3114C3.66233 12.3853 5.1189 12.9886 6.63768 12.9886C8.15645 12.9886 9.61302 12.3853 10.687 11.3114V11.3114Z" stroke="black" stroke-opacity="0.5" stroke-width="1.35399" stroke-linecap="round" stroke-linejoin="round"></path>
  </symbol>
	<symbol fill="none" xmlns="http://www.w3.org/2000/svg" viewBox="0 0 15 27" id="icon-back-black">
    <path d="M13.286 2L1.85742 13.4286L13.286 24.8571" stroke="black" stroke-width="2.5" stroke-linecap="round"></path>
  </symbol>
	<symbol fill="none" xmlns="http://www.w3.org/2000/svg" viewBox="0 0 42 30" id="icon-close-accent">
    <line x1="8" y1="27.6673" x2="33.4558" y2="2.21141" stroke="#DB7210" stroke-width="3" stroke-linecap="round"></line>
    <line x1="8.12132" y1="2" x2="33.5772" y2="27.4558" stroke="#DB7210" stroke-width="3" stroke-linecap="round"></line>
  </symbol>
	<symbol fill="none" xmlns="http://www.w3.org/2000/svg" viewBox="0 0 9 9" id="icon-close-black">
    <path d="M5.16459 4.43892L8.73284 0.870669C8.81303 0.777033 8.85493 0.656585 8.85017 0.533397C8.84541 0.410209 8.79434 0.293353 8.70717 0.20618C8.62 0.119008 8.50314 0.06794 8.37995 0.0631818C8.25677 0.0584235 8.13632 0.100326 8.04268 0.180514L4.47443 3.74876L0.906181 0.175619C0.812545 0.0954307 0.692097 0.0535292 0.568909 0.0582874C0.44572 0.0630456 0.328864 0.114113 0.241692 0.201285C0.15452 0.288458 0.103452 0.405314 0.0986937 0.528502C0.0939354 0.65169 0.135837 0.772138 0.216026 0.865775L3.78428 4.43892L0.211131 8.00717C0.159892 8.05105 0.118277 8.10505 0.0888975 8.16577C0.0595177 8.2265 0.0430075 8.29264 0.0404038 8.36005C0.0378001 8.42746 0.0491587 8.49468 0.0737667 8.5575C0.0983747 8.62031 0.135701 8.67735 0.183402 8.72505C0.231104 8.77276 0.28815 8.81008 0.350962 8.83469C0.413773 8.8593 0.480994 8.87066 0.548403 8.86805C0.615813 8.86545 0.681957 8.84894 0.742683 8.81956C0.803409 8.79018 0.857407 8.74857 0.901286 8.69733L4.47443 5.12908L8.04268 8.69733C8.13632 8.77752 8.25677 8.81942 8.37995 8.81466C8.50314 8.8099 8.62 8.75883 8.70717 8.67166C8.79434 8.58449 8.84541 8.46763 8.85017 8.34444C8.85493 8.22125 8.81303 8.10081 8.73284 8.00717L5.16459 4.43892Z" fill="black"></path>
  </symbol>
	<symbol fill="none" xmlns="http://www.w3.org/2000/svg" viewBox="0 0 16 20" id="icon-pdf">
    <path d="M10 0H2C1.46957 0 0.960859 0.210714 0.585786 0.585786C0.210714 0.960859 0 1.46957 0 2V18C0 18.5304 0.210714 19.0391 0.585786 19.4142C0.960859 19.7893 1.46957 20 2 20H14C14.5304 20 15.0391 19.7893 15.4142 19.4142C15.7893 19.0391 16 18.5304 16 18V6L10 0ZM5.498 14.19C5.189 14.48 4.733 14.61 4.202 14.61C4.09904 14.6111 3.99613 14.6051 3.894 14.592V16.018H3V12.082C3.40345 12.0218 3.81112 11.9944 4.219 12C4.776 12 5.172 12.106 5.439 12.319C5.693 12.521 5.865 12.852 5.865 13.242C5.864 13.634 5.734 13.965 5.498 14.19ZM9.305 15.545C8.885 15.894 8.246 16.06 7.465 16.06C6.997 16.06 6.666 16.03 6.441 16V12.083C6.8446 12.0241 7.25214 11.9963 7.66 12C8.417 12 8.909 12.136 9.293 12.426C9.708 12.734 9.968 13.225 9.968 13.93C9.968 14.693 9.689 15.22 9.305 15.545ZM13 12.77H11.468V13.681H12.9V14.415H11.468V16.019H10.562V12.03H13V12.77ZM10 7H9V2L14 7H10Z" fill="white"></path>
  </symbol>
	<symbol xmlns="http://www.w3.org/2000/svg" viewBox="0 0 19 15" id="icon-hotel">
    <path d="M18.25 6.625V14.5H16.5V11.875H2.5V14.5H0.75V0.5H2.5V9.25H9.5V3.125H14.75C15.6783 3.125 16.5685 3.49375 17.2249 4.15013C17.8813 4.8065 18.25 5.69674 18.25 6.625ZM6 8.375C5.30381 8.375 4.63613 8.09844 4.14384 7.60616C3.65156 7.11387 3.375 6.44619 3.375 5.75C3.375 5.05381 3.65156 4.38613 4.14384 3.89384C4.63613 3.40156 5.30381 3.125 6 3.125C6.69619 3.125 7.36387 3.40156 7.85616 3.89384C8.34844 4.38613 8.625 5.05381 8.625 5.75C8.625 6.44619 8.34844 7.11387 7.85616 7.60616C7.36387 8.09844 6.69619 8.375 6 8.375Z"></path>
  </symbol>
	<symbol xmlns="http://www.w3.org/2000/svg" viewBox="0 0 17 17" id="star">
    <path d="M8.19883 0.926899C8.29363 0.63515 8.70637 0.635151 8.80117 0.9269L10.5618 6.34553C10.6042 6.476 10.7258 6.56434 10.863 6.56434H16.5604C16.8672 6.56434 16.9947 6.95688 16.7466 7.13719L12.1372 10.4861C12.0262 10.5667 11.9798 10.7097 12.0222 10.8401L13.7828 16.2588C13.8776 16.5505 13.5437 16.7931 13.2955 16.6128L8.68613 13.2639C8.57514 13.1833 8.42486 13.1833 8.31387 13.2639L3.70451 16.6128C3.45633 16.7931 3.12241 16.5505 3.21721 16.2588L4.97783 10.8401C5.02022 10.7097 4.97378 10.5667 4.86279 10.4861L0.25343 7.13719C0.00525403 6.95688 0.1328 6.56434 0.439563 6.56434H6.13704C6.27423 6.56434 6.39582 6.476 6.43821 6.34553L8.19883 0.926899Z"></path>
  </symbol>
</svg>