<svg width="0" height="0" class="hidden">
  <symbol xmlns="http://www.w3.org/2000/svg" viewBox="0 0 15 11" id="icon-arrow-right">
    <path d="M0.910767 4.76786C0.506415 4.76786 0.178624 5.09565 0.178624 5.5C0.178624 5.90435 0.506415 6.23214 0.910767 6.23214L0.910767 4.76786ZM14.607 6.0177C14.893 5.73178 14.893 5.26822 14.607 4.9823L9.94771 0.322969C9.66179 0.0370491 9.19823 0.0370491 8.91231 0.322969C8.62639 0.608888 8.62639 1.07246 8.91231 1.35838L13.0539 5.5L8.91231 9.64163C8.62639 9.92755 8.62639 10.3911 8.91231 10.677C9.19823 10.963 9.66179 10.963 9.94771 10.677L14.607 6.0177ZM0.910767 6.23214L14.0893 6.23214L14.0893 4.76786L0.910767 4.76786L0.910767 6.23214Z"></path>
  </symbol>
	<symbol fill="#F0940E" xmlns="http://www.w3.org/2000/svg" viewBox="0 0 37 37" id="icon-facebook">
    <path fill-rule="evenodd" clip-rule="evenodd" d="M0 18.6033C0 27.8009 6.68004 35.4491 15.4167 37V23.6384H10.7917V18.5H15.4167V14.3884C15.4167 9.76338 18.3967 7.19496 22.6116 7.19496C23.9467 7.19496 25.3866 7.4 26.7217 7.60504V12.3333H24.3583C22.0967 12.3333 21.5833 13.4634 21.5833 14.9033V18.5H26.5167L25.695 23.6384H21.5833V37C30.32 35.4491 37 27.8024 37 18.6033C37 8.37125 28.675 0 18.5 0C8.325 0 0 8.37125 0 18.6033Z"></path>
  </symbol>
	<symbol fill="#F0940E" xmlns="http://www.w3.org/2000/svg" viewBox="0 0 39 39" id="icon-insta">
    <path d="M25.35 19.4998C25.35 21.0513 24.7337 22.5393 23.6366 23.6364C22.5395 24.7334 21.0515 25.3498 19.5 25.3498C17.9485 25.3498 16.4605 24.7334 15.3635 23.6364C14.2664 22.5393 13.65 21.0513 13.65 19.4998C13.65 19.1663 13.6851 18.8407 13.7456 18.5248H11.7V26.3189C11.7 26.861 12.1388 27.2998 12.6809 27.2998H26.3211C26.5809 27.2993 26.8299 27.1957 27.0134 27.0118C27.197 26.8279 27.3 26.5787 27.3 26.3189V18.5248H25.2545C25.3149 18.8407 25.35 19.1663 25.35 19.4998ZM19.5 23.3998C20.0123 23.3997 20.5196 23.2986 20.9928 23.1025C21.466 22.9063 21.896 22.6189 22.2581 22.2565C22.6203 21.8942 22.9075 21.4641 23.1035 20.9907C23.2994 20.5174 23.4002 20.0101 23.4 19.4978C23.3999 18.9855 23.2989 18.4783 23.1027 18.0051C22.9065 17.5318 22.6191 17.1019 22.2568 16.7397C21.8944 16.3776 21.4643 16.0903 20.991 15.8944C20.5177 15.6985 20.0104 15.5977 19.4981 15.5978C18.4635 15.5981 17.4713 16.0093 16.74 16.7411C16.0086 17.4728 15.5978 18.4652 15.5981 19.4998C15.5983 20.5344 16.0096 21.5265 16.7413 22.2579C17.4731 22.9893 18.4654 23.4 19.5 23.3998ZM24.18 15.4048H26.5181C26.6734 15.4048 26.8224 15.3432 26.9324 15.2336C27.0424 15.1239 27.1045 14.9751 27.105 14.8198V12.4817C27.105 12.3261 27.0432 12.1768 26.9331 12.0667C26.823 11.9566 26.6737 11.8948 26.5181 11.8948H24.18C24.0244 11.8948 23.8751 11.9566 23.765 12.0667C23.6549 12.1768 23.5931 12.3261 23.5931 12.4817V14.8198C23.595 15.1415 23.8583 15.4048 24.18 15.4048ZM19.5 0.779785C14.5352 0.779785 9.77367 2.75206 6.26299 6.26275C2.75231 9.77343 0.780029 14.5349 0.780029 19.4998C0.780029 24.4646 2.75231 29.2261 6.26299 32.7368C9.77367 36.2475 14.5352 38.2198 19.5 38.2198C21.9584 38.2198 24.3926 37.7356 26.6639 36.7948C28.9351 35.854 30.9988 34.4751 32.7371 32.7368C34.4754 30.9985 35.8543 28.9348 36.7951 26.6636C37.7358 24.3924 38.22 21.9581 38.22 19.4998C38.22 17.0414 37.7358 14.6072 36.7951 12.3359C35.8543 10.0647 34.4754 8.00106 32.7371 6.26275C30.9988 4.52443 28.9351 3.14553 26.6639 2.20476C24.3926 1.26399 21.9584 0.779785 19.5 0.779785ZM29.25 27.0833C29.25 28.2748 28.275 29.2498 27.0836 29.2498H11.9165C10.725 29.2498 9.75003 28.2748 9.75003 27.0833V11.9162C9.75003 10.7248 10.725 9.74978 11.9165 9.74978H27.0836C28.275 9.74978 29.25 10.7248 29.25 11.9162V27.0833Z"></path>
  </symbol>
	<symbol fill="#F0940E" xmlns="http://www.w3.org/2000/svg" viewBox="0 0 37 37" id="icon-twitter">
    <path d="M18.5 0C8.28371 0 0 8.28371 0 18.5C0 28.7163 8.28371 37 18.5 37C28.7163 37 37 28.7163 37 18.5C37 8.28371 28.7163 0 18.5 0ZM27.3907 13.9452C27.4031 14.1393 27.4031 14.3416 27.4031 14.5398C27.4031 20.6019 22.7864 27.5848 14.3499 27.5848C11.7483 27.5848 9.33672 26.8291 7.30502 25.5283C7.67667 25.5696 8.03181 25.5862 8.41172 25.5862C10.559 25.5862 12.5329 24.8594 14.1062 23.6288C12.0911 23.5875 10.398 22.2661 9.81987 20.4491C10.526 20.5523 11.1619 20.5523 11.8887 20.3665C10.8511 20.1557 9.91846 19.5922 9.24924 18.7716C8.58002 17.9511 8.21551 16.9242 8.21763 15.8654V15.8076C8.82466 16.1503 9.53906 16.3609 10.2865 16.3898C9.65817 15.9711 9.14287 15.4038 8.78631 14.7382C8.42974 14.0726 8.24292 13.3293 8.24241 12.5742C8.24241 11.7194 8.4654 10.939 8.86596 10.2617C10.0177 11.6795 11.4548 12.8391 13.0841 13.6651C14.7133 14.4911 16.4981 14.965 18.3224 15.056C17.6741 11.9383 20.0031 9.41518 22.8029 9.41518C24.1243 9.41518 25.3136 9.96853 26.1519 10.8605C27.1884 10.6664 28.1795 10.2782 29.0632 9.75792C28.7204 10.8192 28.0019 11.7153 27.048 12.281C27.973 12.1819 28.865 11.9259 29.6908 11.5666C29.0673 12.4834 28.2868 13.2969 27.3907 13.9452Z"></path>
  </symbol>
	<symbol xmlns="http://www.w3.org/2000/svg" viewBox="0 0 12 12" id="icon-search">
    <path d="M5.25 10.25C6.35936 10.2498 7.43675 9.87839 8.31063 9.195L11.0581 11.9425L11.9419 11.0588L9.19438 8.31125C9.87813 7.43729 10.2497 6.35965 10.25 5.25C10.25 2.49313 8.00688 0.25 5.25 0.25C2.49313 0.25 0.25 2.49313 0.25 5.25C0.25 8.00688 2.49313 10.25 5.25 10.25ZM5.25 1.5C7.31812 1.5 9 3.18187 9 5.25C9 7.31812 7.31812 9 5.25 9C3.18187 9 1.5 7.31812 1.5 5.25C1.5 3.18187 3.18187 1.5 5.25 1.5Z"></path>
  </symbol>
	<symbol xmlns="http://www.w3.org/2000/svg" viewBox="0 0 12 29" id="icon-logo-number">
    <path d="M0.188134 7.65621L0.606308 3.47447C0.623806 3.29949 0.725924 3.1442 0.879641 3.0588L5.34196 0.579732C5.42168 0.535447 5.51136 0.512207 5.60255 0.512207H11.2789C11.6071 0.512207 11.8584 0.804304 11.8095 1.12888L7.67876 28.4947C7.63914 28.7572 7.4136 28.9512 7.14818 28.9512H0.733618C0.401182 28.9512 0.148738 28.652 0.204686 28.3243L3.68782 7.92312C3.75938 7.50402 3.33831 7.17214 2.94752 7.33962L0.933428 8.2028C0.557924 8.36373 0.147484 8.06271 0.188134 7.65621Z"></path>
  </symbol>
	<symbol fill="none" xmlns="http://www.w3.org/2000/svg" viewBox="0 0 25 43" id="icon-angle">
    <path d="M2 2L22 21.5L2 41" stroke="white" stroke-opacity="0.76" stroke-width="4" stroke-linecap="round"></path>
  </symbol>
	<symbol xmlns="http://www.w3.org/2000/svg" viewBox="0 0 23 23" id="icon-switch">
    <path d="M19 8.5C19.2761 8.5 19.5 8.27614 19.5 8C19.5 7.72386 19.2761 7.5 19 7.5L19 8.5ZM4.64645 7.64645C4.45118 7.84171 4.45118 8.15829 4.64645 8.35355L7.82843 11.5355C8.02369 11.7308 8.34027 11.7308 8.53553 11.5355C8.7308 11.3403 8.7308 11.0237 8.53553 10.8284L5.70711 8L8.53553 5.17157C8.7308 4.97631 8.7308 4.65973 8.53553 4.46447C8.34027 4.2692 8.02369 4.2692 7.82843 4.46447L4.64645 7.64645ZM19 7.5L5 7.5L5 8.5L19 8.5L19 7.5Z" fill="#F0940E"></path>
    <path d="M5 16.5C4.72386 16.5 4.5 16.2761 4.5 16C4.5 15.7239 4.72386 15.5 5 15.5L5 16.5ZM19.3536 15.6464C19.5488 15.8417 19.5488 16.1583 19.3536 16.3536L16.1716 19.5355C15.9763 19.7308 15.6597 19.7308 15.4645 19.5355C15.2692 19.3403 15.2692 19.0237 15.4645 18.8284L18.2929 16L15.4645 13.1716C15.2692 12.9763 15.2692 12.6597 15.4645 12.4645C15.6597 12.2692 15.9763 12.2692 16.1716 12.4645L19.3536 15.6464ZM5 15.5L19 15.5L19 16.5L5 16.5L5 15.5Z" fill="#F0940E"></path>
  </symbol>
	<symbol fill="none" xmlns="http://www.w3.org/2000/svg" viewBox="0 0 24 24" id="icon-close">
    <path d="M13.9594 11.9339L23.6794 2.21394C23.8978 1.95887 24.012 1.63077 23.999 1.2952C23.986 0.959636 23.8469 0.641318 23.6095 0.403858C23.372 0.166399 23.0537 0.0272883 22.7181 0.0143267C22.3826 0.00136521 22.0545 0.115507 21.7994 0.333942L12.0794 10.0539L2.35939 0.320609C2.10432 0.102174 1.77622 -0.0119672 1.44065 0.000994381C1.10509 0.0139559 0.786767 0.153065 0.549308 0.390525C0.311849 0.627984 0.172738 0.946302 0.159777 1.28187C0.146815 1.61744 0.260957 1.94554 0.479392 2.20061L10.1994 11.9339L0.466059 21.6539C0.326483 21.7735 0.213123 21.9206 0.133091 22.086C0.0530604 22.2514 0.00808623 22.4316 0.000993573 22.6152C-0.00609909 22.7988 0.0248422 22.9819 0.0918749 23.153C0.158908 23.3241 0.260585 23.4795 0.390525 23.6095C0.520465 23.7394 0.675861 23.8411 0.846961 23.9081C1.01806 23.9752 1.20117 24.0061 1.3848 23.999C1.56842 23.9919 1.7486 23.9469 1.91402 23.8669C2.07944 23.7869 2.22653 23.6735 2.34606 23.5339L12.0794 13.8139L21.7994 23.5339C22.0545 23.7524 22.3826 23.8665 22.7181 23.8536C23.0537 23.8406 23.372 23.7015 23.6095 23.464C23.8469 23.2266 23.986 22.9082 23.999 22.5727C24.012 22.2371 23.8978 21.909 23.6794 21.6539L13.9594 11.9339Z" fill="#F0940E"></path>
  </symbol>
	<symbol fill="none" xmlns="http://www.w3.org/2000/svg" viewBox="0 0 20 18" id="icon-vip">
    <path d="M1 0H19C19.2652 0 19.5196 0.105357 19.7071 0.292893C19.8946 0.48043 20 0.734784 20 1V17C20 17.2652 19.8946 17.5196 19.7071 17.7071C19.5196 17.8946 19.2652 18 19 18H1C0.734784 18 0.48043 17.8946 0.292893 17.7071C0.105357 17.5196 0 17.2652 0 17V1C0 0.734784 0.105357 0.48043 0.292893 0.292893C0.48043 0.105357 0.734784 0 1 0ZM9 5.5V12.5H11V5.5H9ZM8.715 5.5H6.601L5.104 9.613L3.607 5.5H1.493L4.104 12.464H6.104L8.715 5.5ZM14 10.5H15.5C16.163 10.5 16.7989 10.2366 17.2678 9.76777C17.7366 9.29893 18 8.66304 18 8C18 7.33696 17.7366 6.70107 17.2678 6.23223C16.7989 5.76339 16.163 5.5 15.5 5.5H12V12.5H14V10.5ZM14 8.5V7.5H15.5C15.6326 7.5 15.7598 7.55268 15.8536 7.64645C15.9473 7.74021 16 7.86739 16 8C16 8.13261 15.9473 8.25979 15.8536 8.35355C15.7598 8.44732 15.6326 8.5 15.5 8.5H14Z" fill="#F0940E"></path>
  </symbol>
	<symbol fill="none" xmlns="http://www.w3.org/2000/svg" viewBox="0 0 21 21" id="icon-group">
    <path d="M7.00002 9.41498H6.49252C5.79996 9.38995 5.10965 9.50752 4.46442 9.7604C3.81919 10.0133 3.23281 10.396 2.74168 10.885L2.60168 11.0483V15.8783H4.98168V13.1366L5.30252 12.775L5.44835 12.6058C6.20781 11.8256 7.15331 11.2515 8.19585 10.9375C7.67388 10.5403 7.26222 10.0162 7.00002 9.41498Z" fill="#F0940E"></path>
    <path d="M18.2817 10.8675C17.7906 10.3786 17.2042 9.99581 16.559 9.74294C15.9138 9.49007 15.2235 9.3725 14.5309 9.39753C14.3185 9.39813 14.1063 9.40981 13.8951 9.43253C13.6279 9.99655 13.2275 10.4871 12.7284 10.8617C13.8414 11.1696 14.8496 11.7745 15.6451 12.6117L15.7909 12.775L16.1059 13.1367V15.8842H18.4042V11.0309L18.2817 10.8675Z" fill="#F0940E"></path>
    <path d="M6.47505 8.27751H6.65588C6.57186 7.55607 6.69845 6.82573 7.02037 6.17464C7.34228 5.52356 7.84577 4.97957 8.47005 4.60834C8.24375 4.26263 7.93155 3.98161 7.56402 3.79281C7.19649 3.60401 6.78622 3.51389 6.37339 3.53129C5.96057 3.54869 5.55934 3.673 5.20899 3.89205C4.85865 4.11111 4.5712 4.41739 4.37479 4.78092C4.17838 5.14445 4.07975 5.55275 4.08855 5.96585C4.09736 6.37894 4.2133 6.78267 4.42501 7.1375C4.63673 7.49233 4.93697 7.78609 5.29633 7.99002C5.65569 8.19395 6.06186 8.30105 6.47505 8.30084V8.27751Z" fill="#F0940E"></path>
    <path d="M14.2508 7.83997C14.2579 7.97405 14.2579 8.1084 14.2508 8.24247C14.3628 8.26022 14.4758 8.26997 14.5892 8.27164H14.7C15.1114 8.2497 15.5101 8.12162 15.8572 7.89987C16.2044 7.67811 16.4883 7.37024 16.6812 7.00622C16.874 6.64221 16.9694 6.23445 16.9579 5.82265C16.9464 5.41085 16.8285 5.00904 16.6156 4.65635C16.4027 4.30365 16.1021 4.01208 15.7431 3.81003C15.3841 3.60798 14.9789 3.50233 14.567 3.50336C14.155 3.5044 13.7503 3.61209 13.3924 3.81594C13.0344 4.0198 12.7353 4.31288 12.5242 4.66664C13.0521 5.01135 13.4863 5.48173 13.7876 6.03559C14.089 6.58944 14.2482 7.20944 14.2508 7.83997Z" fill="#F0940E"></path>
    <path d="M10.4242 10.4533C11.8642 10.4533 13.0317 9.28593 13.0317 7.84584C13.0317 6.40576 11.8642 5.23834 10.4242 5.23834C8.98407 5.23834 7.81665 6.40576 7.81665 7.84584C7.81665 9.28593 8.98407 10.4533 10.4242 10.4533Z" fill="#F0940E"></path>
    <path d="M10.5642 11.8417C9.8024 11.8109 9.04224 11.9346 8.32948 12.2052C7.61671 12.4759 6.96607 12.888 6.41671 13.4167L6.27087 13.58V17.2725C6.27315 17.3928 6.2991 17.5114 6.34724 17.6217C6.39538 17.7319 6.46477 17.8316 6.55144 17.915C6.63811 17.9984 6.74037 18.064 6.85238 18.1078C6.96438 18.1517 7.08393 18.1731 7.20421 18.1708H13.9067C14.027 18.1731 14.1465 18.1517 14.2585 18.1078C14.3705 18.064 14.4728 17.9984 14.5595 17.915C14.6461 17.8316 14.7155 17.7319 14.7637 17.6217C14.8118 17.5114 14.8378 17.3928 14.84 17.2725V13.5917L14.7 13.4167C14.1542 12.8864 13.5059 12.4731 12.7947 12.2023C12.0835 11.9315 11.3245 11.8087 10.5642 11.8417Z" fill="#F0940E"></path>
  </symbol>
	<symbol fill="none" xmlns="http://www.w3.org/2000/svg" viewBox="0 0 18 19" id="icon-airplane">
    <path d="M17.375 13V11.25L10.375 6.875V2.0625C10.375 1.33625 9.78875 0.75 9.0625 0.75C8.33625 0.75 7.75 1.33625 7.75 2.0625V6.875L0.75 11.25V13L7.75 10.8125V15.625L6 16.9375V18.25L9.0625 17.375L12.125 18.25V16.9375L10.375 15.625V10.8125L17.375 13Z" fill="#F0940E"></path>
  </symbol>
	<symbol fill="none" xmlns="http://www.w3.org/2000/svg" viewBox="0 0 23 27" id="icon-play">
    <path d="M22 11.7679C23.3333 12.5378 23.3333 14.4622 22 15.232L3.25 26.0574C1.91666 26.8272 0.249999 25.8649 0.249999 24.3253L0.25 2.67468C0.25 1.13508 1.91667 0.17283 3.25 0.942631L22 11.7679Z" fill="#F0940E"></path>
  </symbol>
	<symbol fill="none" xmlns="http://www.w3.org/2000/svg" viewBox="0 0 23 23" id="icon-filter">
    <path d="M21.0829 7.02777H1.91623C1.74679 7.02777 1.58428 7.09508 1.46447 7.2149C1.34466 7.33471 1.27734 7.49722 1.27734 7.66666C1.27734 7.8361 1.34466 7.99861 1.46447 8.11842C1.58428 8.23824 1.74679 8.30555 1.91623 8.30555H21.0829C21.2523 8.30555 21.4148 8.23824 21.5347 8.11842C21.6545 7.99861 21.7218 7.8361 21.7218 7.66666C21.7218 7.49722 21.6545 7.33471 21.5347 7.2149C21.4148 7.09508 21.2523 7.02777 21.0829 7.02777Z" fill="white"></path>
    <path d="M17.8893 10.8611H5.11155C4.9421 10.8611 4.7796 10.9284 4.65978 11.0482C4.53997 11.1681 4.47266 11.3306 4.47266 11.5C4.47266 11.6694 4.53997 11.832 4.65978 11.9518C4.7796 12.0716 4.9421 12.1389 5.11155 12.1389H17.8893C18.0588 12.1389 18.2213 12.0716 18.3411 11.9518C18.4609 11.832 18.5282 11.6694 18.5282 11.5C18.5282 11.3306 18.4609 11.1681 18.3411 11.0482C18.2213 10.9284 18.0588 10.8611 17.8893 10.8611Z" fill="white"></path>
    <path d="M14.6938 14.6945H8.3049C8.13546 14.6945 7.97296 14.7618 7.85314 14.8816C7.73333 15.0014 7.66602 15.1639 7.66602 15.3333C7.66602 15.5028 7.73333 15.6653 7.85314 15.7851C7.97296 15.9049 8.13546 15.9722 8.3049 15.9722H14.6938C14.8632 15.9722 15.0257 15.9049 15.1456 15.7851C15.2654 15.6653 15.3327 15.5028 15.3327 15.3333C15.3327 15.1639 15.2654 15.0014 15.1456 14.8816C15.0257 14.7618 14.8632 14.6945 14.6938 14.6945Z" fill="white"></path>
  </symbol>
</svg>