<svg width="0" height="0" class="hidden">
  <symbol fill="white" xmlns="http://www.w3.org/2000/svg" viewBox="0 0 15 11" id="icon-arrow-right">
    <path d="M0.910767 4.76786C0.506415 4.76786 0.178624 5.09565 0.178624 5.5C0.178624 5.90435 0.506415 6.23214 0.910767 6.23214L0.910767 4.76786ZM14.607 6.0177C14.893 5.73178 14.893 5.26822 14.607 4.9823L9.94771 0.322969C9.66179 0.0370491 9.19823 0.0370491 8.91231 0.322969C8.62639 0.608888 8.62639 1.07246 8.91231 1.35838L13.0539 5.5L8.91231 9.64163C8.62639 9.92755 8.62639 10.3911 8.91231 10.677C9.19823 10.963 9.66179 10.963 9.94771 10.677L14.607 6.0177ZM0.910767 6.23214L14.0893 6.23214L14.0893 4.76786L0.910767 4.76786L0.910767 6.23214Z"></path>
  </symbol>
	<symbol fill="#F0940E" xmlns="http://www.w3.org/2000/svg" viewBox="0 0 37 37" id="icon-facebook">
    <path fill-rule="evenodd" clip-rule="evenodd" d="M0 18.6033C0 27.8009 6.68004 35.4491 15.4167 37V23.6384H10.7917V18.5H15.4167V14.3884C15.4167 9.76338 18.3967 7.19496 22.6116 7.19496C23.9467 7.19496 25.3866 7.4 26.7217 7.60504V12.3333H24.3583C22.0967 12.3333 21.5833 13.4634 21.5833 14.9033V18.5H26.5167L25.695 23.6384H21.5833V37C30.32 35.4491 37 27.8024 37 18.6033C37 8.37125 28.675 0 18.5 0C8.325 0 0 8.37125 0 18.6033Z"></path>
  </symbol>
	<symbol fill="#F0940E" xmlns="http://www.w3.org/2000/svg" viewBox="0 0 39 39" id="icon-insta">
    <path d="M25.35 19.4998C25.35 21.0513 24.7337 22.5393 23.6366 23.6364C22.5395 24.7334 21.0515 25.3498 19.5 25.3498C17.9485 25.3498 16.4605 24.7334 15.3635 23.6364C14.2664 22.5393 13.65 21.0513 13.65 19.4998C13.65 19.1663 13.6851 18.8407 13.7456 18.5248H11.7V26.3189C11.7 26.861 12.1388 27.2998 12.6809 27.2998H26.3211C26.5809 27.2993 26.8299 27.1957 27.0134 27.0118C27.197 26.8279 27.3 26.5787 27.3 26.3189V18.5248H25.2545C25.3149 18.8407 25.35 19.1663 25.35 19.4998ZM19.5 23.3998C20.0123 23.3997 20.5196 23.2986 20.9928 23.1025C21.466 22.9063 21.896 22.6189 22.2581 22.2565C22.6203 21.8942 22.9075 21.4641 23.1035 20.9907C23.2994 20.5174 23.4002 20.0101 23.4 19.4978C23.3999 18.9855 23.2989 18.4783 23.1027 18.0051C22.9065 17.5318 22.6191 17.1019 22.2568 16.7397C21.8944 16.3776 21.4643 16.0903 20.991 15.8944C20.5177 15.6985 20.0104 15.5977 19.4981 15.5978C18.4635 15.5981 17.4713 16.0093 16.74 16.7411C16.0086 17.4728 15.5978 18.4652 15.5981 19.4998C15.5983 20.5344 16.0096 21.5265 16.7413 22.2579C17.4731 22.9893 18.4654 23.4 19.5 23.3998ZM24.18 15.4048H26.5181C26.6734 15.4048 26.8224 15.3432 26.9324 15.2336C27.0424 15.1239 27.1045 14.9751 27.105 14.8198V12.4817C27.105 12.3261 27.0432 12.1768 26.9331 12.0667C26.823 11.9566 26.6737 11.8948 26.5181 11.8948H24.18C24.0244 11.8948 23.8751 11.9566 23.765 12.0667C23.6549 12.1768 23.5931 12.3261 23.5931 12.4817V14.8198C23.595 15.1415 23.8583 15.4048 24.18 15.4048ZM19.5 0.779785C14.5352 0.779785 9.77367 2.75206 6.26299 6.26275C2.75231 9.77343 0.780029 14.5349 0.780029 19.4998C0.780029 24.4646 2.75231 29.2261 6.26299 32.7368C9.77367 36.2475 14.5352 38.2198 19.5 38.2198C21.9584 38.2198 24.3926 37.7356 26.6639 36.7948C28.9351 35.854 30.9988 34.4751 32.7371 32.7368C34.4754 30.9985 35.8543 28.9348 36.7951 26.6636C37.7358 24.3924 38.22 21.9581 38.22 19.4998C38.22 17.0414 37.7358 14.6072 36.7951 12.3359C35.8543 10.0647 34.4754 8.00106 32.7371 6.26275C30.9988 4.52443 28.9351 3.14553 26.6639 2.20476C24.3926 1.26399 21.9584 0.779785 19.5 0.779785ZM29.25 27.0833C29.25 28.2748 28.275 29.2498 27.0836 29.2498H11.9165C10.725 29.2498 9.75003 28.2748 9.75003 27.0833V11.9162C9.75003 10.7248 10.725 9.74978 11.9165 9.74978H27.0836C28.275 9.74978 29.25 10.7248 29.25 11.9162V27.0833Z"></path>
  </symbol>
	<symbol fill="#F0940E" xmlns="http://www.w3.org/2000/svg" viewBox="0 0 37 37" id="icon-twitter">
    <path d="M18.5 0C8.28371 0 0 8.28371 0 18.5C0 28.7163 8.28371 37 18.5 37C28.7163 37 37 28.7163 37 18.5C37 8.28371 28.7163 0 18.5 0ZM27.3907 13.9452C27.4031 14.1393 27.4031 14.3416 27.4031 14.5398C27.4031 20.6019 22.7864 27.5848 14.3499 27.5848C11.7483 27.5848 9.33672 26.8291 7.30502 25.5283C7.67667 25.5696 8.03181 25.5862 8.41172 25.5862C10.559 25.5862 12.5329 24.8594 14.1062 23.6288C12.0911 23.5875 10.398 22.2661 9.81987 20.4491C10.526 20.5523 11.1619 20.5523 11.8887 20.3665C10.8511 20.1557 9.91846 19.5922 9.24924 18.7716C8.58002 17.9511 8.21551 16.9242 8.21763 15.8654V15.8076C8.82466 16.1503 9.53906 16.3609 10.2865 16.3898C9.65817 15.9711 9.14287 15.4038 8.78631 14.7382C8.42974 14.0726 8.24292 13.3293 8.24241 12.5742C8.24241 11.7194 8.4654 10.939 8.86596 10.2617C10.0177 11.6795 11.4548 12.8391 13.0841 13.6651C14.7133 14.4911 16.4981 14.965 18.3224 15.056C17.6741 11.9383 20.0031 9.41518 22.8029 9.41518C24.1243 9.41518 25.3136 9.96853 26.1519 10.8605C27.1884 10.6664 28.1795 10.2782 29.0632 9.75792C28.7204 10.8192 28.0019 11.7153 27.048 12.281C27.973 12.1819 28.865 11.9259 29.6908 11.5666C29.0673 12.4834 28.2868 13.2969 27.3907 13.9452Z"></path>
  </symbol>
</svg>